<svg clip-rule="evenodd" fill-rule="evenodd" stroke-linejoin="round" stroke-miterlimit="2" viewBox="0 0 1689 1677" xmlns="http://www.w3.org/2000/svg"><g fill-rule="nonzero" transform="matrix(4.16667 0 0 4.16667 -.000167 -2237.72)"><g fill="#7aafde"><path d="m50.061 811.775c27.516.552 55.104.923 82.619.184 1.469-.04 1.469-2.239 0-2.279-27.515-.739-55.103-.368-82.619.184-1.231.025-1.231 1.886 0 1.911z"/><path d="m213.18 848.874c18.852.439 37.705.756 56.562.884 9.078.062 18.155.123 27.233.185 9.648.066 19.75.986 29.329-.228 2.07-.263 2.07-2.96 0-3.222-8.906-1.13-18.265-.304-27.234-.243-9.776.066-19.552.133-29.328.199-18.857.128-37.71.445-56.562.884-.994.023-.994 1.518 0 1.541z"/><path d="m260.633 834.913c14.622 1.263 29.38 1.334 44.052 1.509 13.947.166 28.71 1.723 42.542-.173 2.114-.29 2.114-3.963 0-4.253-13.832-1.897-28.595-.34-42.542-.173-14.672.174-29.43.245-44.052 1.508-1.019.088-1.019 1.494 0 1.582z"/><path d="m278.512 733.922c-1.653 4.151-7.413 6.96-10.977 9.317-4.096 2.709-8.639 4.673-13.175 6.504-4.899 1.978-9.911 3.646-15.173 4.295-4.514.557-8.632-1.754-13.035-.424-1.638.495-2.402 3.239-.527 4.031 11.745 4.956 23.013.673 33.885-4.5 5.181-2.465 9.986-5.694 14.334-9.423 3.111-2.669 6.092-5.243 6.222-9.589.028-.957-1.244-.99-1.554-.211z"/><path d="m218.851 675.888c4.117 9.333 2.966 19.245.53 28.852-.943 3.715-1.928 7.617-3.804 10.985-1.517 2.723-4.699 4.181-7.137 5.928-2.306 1.652-.997 5.968 2.062 4.892 9.027-3.174 11.463-10.045 13.417-18.773 2.505-11.19 3.344-23.046-2.852-33.179-.883-1.444-2.869-.186-2.216 1.295z"/><path d="m132.231 722.693c-.791 8.481 9.304 13.777 15.685 16.91 4.336 2.13 8.921 3.468 13.621 4.532 7.497 1.698 13.855 3.339 20.469 7.421 2.86 1.765 6.304-2.52 3.641-4.719-8.587-7.09-19.879-6.673-30.109-9.557-7.072-1.993-20.051-6.473-21.592-14.819-.192-1.036-1.63-.68-1.715.232z"/><path d="m192.843 876.178c-32.891-1.232-66.243-2.446-99.142-1.086-2.896.119-2.896 4.372 0 4.492 32.899 1.36 66.251.146 99.142-1.086 1.495-.056 1.495-2.264 0-2.32z"/><path d="m205.011 538.359c-22.607-2.805-45.552 1.687-67.078 8.68-21.232 6.897-41.298 17.331-59.182 30.677-36.96 27.582-62.642 67.85-73.028 112.699-10.769 46.506-6.512 98.01 14.233 141.165 18.158 37.771 49.902 67.385 87.433 85.487 39.059 18.839 84.965 26.232 127.946 20.435 46.637-6.29 90.086-29.124 121.604-64.09 31.15-34.557 48.522-79.879 48.228-126.393-.277-43.927-11.463-88.204-36.244-124.822-37.534-55.464-103.834-85.765-170.032-85.134-4.571.044-4.429 6.615 0 6.993 44.942 3.83 89.236 15.135 125.323 43.406 33.356 26.132 55.252 63.502 65.272 104.38 11.166 45.554 8.89 94.348-12.501 136.566-21.094 41.634-58.495 73.883-102.107 90.085-81.13 30.142-184.52 2.827-234.558-69.239-27.304-39.324-35.721-88.489-31.076-135.505 4.726-47.837 27.688-91.938 64.027-123.319 17.941-15.493 38.988-27.367 61.23-35.453 22.777-8.282 46.634-11.139 70.51-14.257 1.513-.198 1.522-2.172 0-2.361z"/></g><g fill="#005aaa"><path d="m204.983 564.181c-22.103-3.162-44.887 2.006-65.64 9.674-20.791 7.681-39.972 19.28-56.534 33.991-35.948 31.931-54.663 77.836-56.535 125.362-1.797 45.606 12.039 90.776 43.258 124.607 28.374 30.747 68.976 48.516 110.012 53.879 46.965 6.137 94.417-4.285 132.648-32.81 37.197-27.752 61.626-69.921 66.385-116.128 4.476-43.455-6.714-90.621-31.437-126.7-24.024-35.06-61.426-58.758-102.579-68.352-14.822-3.456-29.998-5.241-45.213-4.994-4.58.075-4.418 6.583 0 6.993 44.663 4.142 87.896 16.661 120.876 48.512 31.402 30.327 46.946 72.879 49.602 115.852 2.956 47.819-14.397 93.142-49.329 126.13-35.157 33.2-82.971 47.452-130.664 43.613-41.79-3.363-82.789-20.319-112.263-50.53-32.883-33.705-45.595-80.268-43.397-126.493 2.13-44.771 21.556-86.473 55.289-116.089 15.785-13.858 34.425-24.434 54.13-31.597 19.855-7.216 40.65-9.515 61.391-12.643 1.129-.17 1.136-2.114 0-2.277z"/><path d="m95.025 676.322c-4.846 20.946 6.546 45.297 21.796 59.245 9.113 8.335 20.429 12.094 32.424 14.009 6.442 1.028 12.906 1.397 19.25 3.009 6.118 1.554 12.458 4.63 18.869 4.152 3.394-.254 5.671-5.381 1.92-7.088-9.733-4.432-21.524-6.578-32.114-7.626-11.875-1.175-23.934-3.548-33.581-11.01-8.17-6.32-14.329-14.766-18.937-23.925-4.923-9.784-6.637-20.109-8.417-30.766-.104-.621-1.076-.58-1.21 0z"/><path d="m95.647 678.059c3.269 6.317 12.096 8.385 18.408 9.731 9.514 2.027 18.731 2.558 27.652 6.749 11.757 5.522 21.887 14.415 29.478 24.898 6.651 9.186 13.679 20.576 13.394 32.273-.13 5.296 7.417 4.984 8.017 0 1.381-11.486-6.021-23.599-12.138-32.697-7.016-10.434-15.953-18.999-26.697-25.529-9.164-5.571-18.464-8.193-29.008-9.176-8.864-.827-21.389-.174-28.025-7.084-.56-.583-1.432.157-1.081.835z"/><path d="m142.995 717.428c16.785 7.301 28.319 22.634 41.372 34.832 3.227 3.016 8.11-2.098 4.771-4.77-7.326-5.863-14.184-12.276-21.601-18.028-7.398-5.737-15.339-9.854-24.028-13.255-.703-.276-1.206.92-.514 1.221z"/><path d="m206.172 624.572c-4.951.925-8.63 1.448-12.812 4.603-3.619 2.73-6.192 6.423-8.271 10.405-4.783 9.16-6.181 20.159-5.604 30.362.779 13.765 6.627 26.406 14.066 37.798 2.643 4.048 5.222 8.113 7.786 12.213 1.757 2.809 4.036 7.954 8.043 7.672 2.364-.167 4.586-2.875 2.966-5.169-.627-.888-3.408-5.377-4.78-7.515-2.069-3.227-4.049-6.501-6.259-9.634-6.99-9.911-12.576-20.944-14.511-33.011-1.387-8.65-.682-17.853 1.66-26.256 2.323-8.333 8.815-18.532 18.017-20.377.717-.144.41-1.224-.301-1.091z"/><path d="m202.66 621.893c-3.151 7.638 3.922 14.962 8.21 20.556 6.775 8.838 11.045 19.915 14.001 30.542 2.778 9.988 4.358 21.219 1.541 31.358-2.417 8.694-9.387 15.137-16.65 19.978-4.356 2.903-.35 9.919 4.129 7.064 7.971-5.081 14.886-11.381 18.809-20.134 4.265-9.514 3.713-19.81 2.079-29.862-1.973-12.135-6.711-23.783-13.033-34.278-5.265-8.739-15.517-15.05-17.877-25.224-.155-.668-.994-.523-1.209 0z"/><path d="m313.059 709.024c-4.857 2.216-10.474-.966-15.181-2.249-5.385-1.467-11.674-.91-17.122-.226-10.549 1.323-20.974 4.574-30.655 8.918-8.769 3.933-16.247 10.028-22.684 17.087-4.876 5.347-11.497 12.3-12.36 19.767-.516 4.471 6.492 4.432 6.993 0 .336-2.973 3.385-6.27 5.087-8.574 2.59-3.504 5.531-6.778 8.578-9.885 6.476-6.606 14.35-11.281 22.944-14.58 9.999-3.839 20.638-6.587 31.353-7.121 4.972-.248 9.72.876 14.63 1.35 3.849.371 6.262-1.33 9.103-3.599.539-.431-.147-1.134-.686-.888z"/><path d="m312.122 710.781c-6.596.373-10.526 7.418-13.459 12.436-1.77 3.028-3.11 6.465-5.307 9.223-3.973 4.991-9.052 9.219-14.291 12.798-10.4 7.103-22.469 11.575-35.076 12.218-5.622.286-11.442-.324-16.565-2.732-2.573-1.209-5.881-4.049-8.867-3.719l3.25 3.25c-.001-.033-.002-.066-.003-.099-.145-4.18-6.646-4.194-6.501 0 .23 6.649 13.529 9.665 18.599 10.457 12.781 1.994 25.487-1.175 37.064-6.494 10.677-4.906 20.939-12.851 27.568-22.63 2.312-3.41 3.677-7.663 5.208-11.461 1.59-3.946 3.884-11.091 8.53-12.135.621-.14.488-1.148-.15-1.112z"/><path d="m267.617 731.056c-5.895 5.855-14.291 8.903-21.941 11.69-3.354 1.223-6.683 2.499-10.014 3.784-5.029 1.941-10.351 2.53-15.526 3.88-4.158 1.086-2.303 6.869 1.728 6.269 9.541-1.422 18.345-5.979 26.969-10.07 7.291-3.458 15.773-7.358 19.834-14.743.364-.663-.504-1.353-1.05-.81z"/><path d="m199.089 662.718c8.086 11.075 9.193 27.498 9.058 40.696-.172 16.78-5.305 33.089-8.181 49.517-1.126 6.439-10.754 69.481 7.914 65.2 2.183-.501 3.344-3.343 2.126-5.226-4.076-6.303-4.56-15.472-4.764-23.267-.441-16.818 2.314-33.923 5.362-50.409 4.734-25.613 8.286-56.324-10.594-77.221-.442-.489-1.316.169-.921.71z"/><path d="m218.649 753.029c-2.44 2.94-5.919 5.104-8.794 7.614-3.14 2.741-5.224 6.08-7.151 9.731-4.306 8.16-7.976 17.592-5.73 26.871.907 3.751 6.521 2.835 6.586-.891.157-9.046 2.426-16.783 5.859-25.086 2.653-6.419 8.114-10.94 10.45-17.53.238-.673-.756-1.268-1.22-.709z"/><path d="m187.975 753.902c4.646 8.349 7.067 16.942 7.886 26.483.427 4.972.53 9.955.308 14.94-.182 4.083-1.186 8.134-.595 12.196.378 2.6 4.152 2.674 5.304.694 2.204-3.789 2.029-8.626 2.107-12.89.105-5.732-.38-11.472-1.315-17.124-1.384-8.371-4.198-21.287-12.725-25.269-.625-.292-1.336.313-.97.97z"/><path d="m54.044 828.334c11.707 1.313 23.727.99 35.497 1.21 12.526.234 25.057.239 37.585.327 24.36.171 48.72.262 73.081.346 24.36.083 48.72.167 73.081.251 24.336.084 48.761.751 73.081-.187 3.53-.136 3.53-5.34 0-5.476-24.32-.938-48.745-.271-73.081-.187-24.361.084-48.721.168-73.081.251-24.361.084-48.721.175-73.081.346-11.831.083-23.668.067-35.497.288-12.459.233-25.192-.141-37.585 1.249-1.018.114-1.018 1.468 0 1.582z"/><path d="m58.325 805.829c50.911 1.367 101.785 1.862 152.72 2.085 25.105.11 50.21.091 75.314.108 25.785.017 51.636.574 77.406-.348 3.557-.127 3.557-5.39 0-5.517-25.074-.897-50.225-.366-75.314-.349-25.802.017-51.604-.005-77.406.108-50.935.224-101.809.719-152.72 2.085-1.179.032-1.179 1.797 0 1.828z"/><path d="m190.422 814.88c26.96 2.538 54.581 1.524 81.643 1.74 13.258.106 26.516.235 39.775.273 13.81.04 28.128 1.154 41.868-.312 3.206-.342 3.206-4.642 0-4.984-13.059-1.394-26.649-.357-39.775-.319-13.957.041-27.912.168-41.868.279-27.062.217-54.683-.797-81.643 1.741-1.018.095-1.018 1.486 0 1.582z"/><path d="m259.528 838.453c-15.833-1.824-32.084-1.608-48.007-1.817-16.003-.21-32.004-.33-48.008-.428-31.947-.195-64.095-1.096-96.015.38-3.317.154-3.317 4.995 0 5.149 31.92 1.476 64.068.575 96.015.38 16.004-.097 32.005-.217 48.008-.428 15.923-.209 32.174.008 48.007-1.817.912-.105.912-1.313 0-1.419z"/><path d="m104.804 859.708c35.713.855 71.272 4.863 106.978 5.876 17.861.507 35.737.376 53.602.619 16.642.227 33.847-.095 50.261 2.853 3.264.586 6.723-3.576 3.597-6.179-1.094-.911-2.05-1.13-3.451-1.119-4.772.038-4.773 7.489 0 7.403.262-.005.524-.01.786-.014-.871-.361-1.743-.722-2.614-1.083.017.014.034.027.051.041 1.199-2.059 2.397-4.119 3.596-6.179-15.806-2.674-32.096-2.445-48.095-2.556-18.561-.128-37.122.192-55.682 0-36.372-.378-72.656-3.894-109.029-1.613-1.248.078-1.267 1.921 0 1.951z"/></g></g></svg>