<svg clip-rule="evenodd" fill-rule="evenodd" stroke-linejoin="round" stroke-miterlimit="2" viewBox="0 0 1689 1677" xmlns="http://www.w3.org/2000/svg"><g fill-rule="nonzero" transform="matrix(4.16667 0 0 4.16667 -3250.3 -.292902)"><g fill="#7aafde"><path d="m891.757 274.176c10.586 8.959 17.804 22.022 21.549 35.229 2.106 7.427 2.997 15.288 1.764 22.937-1.123 6.968-6.173 14.988-4.751 21.974.362 1.781 2.902 2.398 4.097 1.082 2.581-2.845 3.122-6.452 4.167-10.088 1.329-4.625 2.325-9.252 2.902-14.029.932-7.725-.762-15.947-3.146-23.263-4.647-14.264-13.631-26.236-25.573-35.148-.758-.566-1.726.699-1.009 1.306z"/><path d="m963.185 278.038c-5.275 12.706-7.674 25.927-7.221 39.668.335 10.175 1.57 22.879 9.597 30.109 2.02 1.819 5.68-.613 3.946-3.045-13.489-18.92-9.195-45.142-4.796-66.311.212-1.023-1.142-1.345-1.526-.421z"/><path d="m993.003 222.925c8.397 9.411 14.877 19.912 18.467 32.049 3.49 11.798 3.62 24.444 2.27 36.585-1.63 14.682-5.91 29.536-11.65 43.109-3.741 8.829-13.18 21.016-5.086 30.004 1.913 2.124 6.126-.1 4.986-2.903-2.554-6.283.14-11.401 2.98-17.077 3.25-6.522 5.85-13.378 8.11-20.299 4.14-12.663 6.72-25.94 7.35-39.251 1.14-23.959-6.97-48.29-26.221-63.423-.85-.667-1.954.367-1.206 1.206z"/><path d="m1016.8 223.7c11.89 10.829 14 28.775 13.62 44.013-.45 17.861-8.77 32.189-17.5 47.151-1.2 2.067 1.86 4.601 3.4 2.623 11.15-14.271 18.23-31.577 18.54-49.774.28-16.17-3.36-35.119-17.15-45.191-.69-.506-1.53.611-.91 1.178z"/><path d="m1059.95 206.825c9.03 8.475 15.69 19.037 19.43 30.841 3.82 12.033 2.88 23.984.71 36.2-.49 2.723 3.18 3.746 4.13 1.139 9.08-24.734-3.19-53.844-23.07-69.386-.84-.657-2.03.434-1.2 1.206z"/><path d="m985.561 104.046c-8.767 11.831-9.234 32.074-.029 43.732 1.785 2.261 5.032-.616 3.817-2.946-3.465-6.647-5.72-12.652-5.901-20.246-.166-6.939 2.004-13.245 3.896-19.789.328-1.134-1.159-1.593-1.783-.751z"/><path d="m985.083 1.376c-22.607-2.806-45.551 1.687-67.077 8.679-21.233 6.898-41.298 17.332-59.182 30.678-36.96 27.582-62.642 67.85-73.028 112.699-10.77 46.505-6.513 98.01 14.233 141.165 18.158 37.771 49.902 67.384 87.433 85.487 39.058 18.839 84.964 26.231 127.948 20.434 46.63-6.29 90.08-29.123 121.6-64.09 31.15-34.556 48.52-79.878 48.23-126.393-.28-43.926-11.46-88.203-36.24-124.821-37.54-55.464-103.84-85.765-170.036-85.134-4.571.044-4.429 6.615 0 6.993 44.946 3.83 89.236 15.135 125.326 43.406 33.35 26.132 55.25 63.501 65.27 104.379 11.16 45.554 8.89 94.348-12.5 136.566-21.1 41.635-58.5 73.884-102.11 90.086-81.129 30.141-184.519 2.827-234.557-69.24-27.304-39.323-35.721-88.488-31.076-135.504 4.726-47.838 27.688-91.938 64.027-123.319 17.941-15.493 38.987-27.367 61.23-35.453 22.777-8.282 46.634-11.139 70.509-14.257 1.513-.198 1.523-2.172 0-2.361z"/></g><g fill="#005aaa"><path d="m985.056 27.198c-22.104-3.162-44.887 2.006-65.64 9.674-20.791 7.681-39.972 19.28-56.534 33.991-35.949 31.931-54.663 77.835-56.535 125.361-1.797 45.607 12.039 90.777 43.258 124.608 28.374 30.747 68.975 48.516 110.011 53.878 46.964 6.138 94.414-4.284 132.644-32.809 37.2-27.753 61.63-69.921 66.39-116.128 4.48-43.456-6.71-90.622-31.44-126.7-24.02-35.06-61.42-58.758-102.58-68.352-14.82-3.456-29.994-5.241-45.209-4.994-4.58.075-4.419 6.583 0 6.993 44.659 4.142 87.899 16.662 120.879 48.512 31.4 30.326 46.94 72.879 49.6 115.852 2.95 47.818-14.4 93.141-49.33 126.129-35.16 33.2-82.97 47.452-130.665 43.614-41.79-3.363-82.788-20.32-112.262-50.53-32.883-33.706-45.595-80.269-43.397-126.494 2.13-44.771 21.556-86.473 55.289-116.088 15.785-13.858 34.424-24.434 54.13-31.597 19.855-7.216 40.65-9.514 61.391-12.643 1.128-.17 1.135-2.114 0-2.277z"/><path d="m943.301 96.085c1.558 4.368-1.536 8.472-3.493 12.142-1.705 3.199-3.168 6.547-4.735 9.815-3.367 7.022-6.51 14.207-8.962 21.603-3.886 11.722-4.764 23.295-.525 35.014 7.858 21.726 28.122 37.346 44.881 52.063 20.91 18.362 36.333 42.604 36.003 71.24-.18 15.483-6.34 28.831-13.498 42.198-3.097 5.783-5.659 11.67-7.848 17.848-1.283 3.618-3.174 9.47 1.419 11.639.898.424 1.599.521 2.575.42 3.784-.393 4.93-5.707.929-6.868.53.558 1.06 1.117 1.589 1.675.137-.766.321-1.521.553-2.264.337-1.221.796-2.417 1.213-3.612 1.197-3.421 2.531-6.724 4.106-9.991 3.102-6.442 6.772-12.587 9.712-19.114 5.65-12.542 7.91-26.399 6.85-40.087-2.03-26.305-17.034-49.583-36.371-66.732-16.939-15.022-37.468-29.658-46.018-51.478-5.185-13.232-1.445-26.494 3.018-39.371 2.457-7.086 5.38-14.017 8.093-21.008 2.092-5.39 5.08-10.146 1.842-15.694-.408-.7-1.617-.233-1.333.562z"/><path d="m951.448 115.672c-6.445 12.545-8.562 24.75-4.93 38.583 2.836 10.803 10.115 19.061 18.911 25.553 9.607 7.089 20.852 11.755 31.125 17.763 10.596 6.194 20.536 13.563 28.886 22.591 17.86 19.312 20.05 44.502 10.62 68.427-8.87 22.493-28.27 41.287-31.37 65.966-.81 6.396 1.44 12.268 7.63 14.7 3.81 1.497 6.55-5.021 2.79-6.615-7.72-3.275-.59-18.361 1.78-23.549 5.83-12.808 14.07-24.37 20.69-36.761 11.71-21.912 16.02-47.12 4.74-70.06-10.34-21.04-31.55-34.823-51.722-45.206-10.452-5.38-21.472-10.304-30.001-18.603-10.623-10.338-13.945-26.082-11.74-40.35.63-4.073 1.988-8.045 3.816-11.723.404-.814-.806-1.532-1.225-.716z"/><path d="m1055.5 136.474c-13.82 14.464-18.19 35.082-15.42 54.494 3.15 22.1 20.48 36.582 29.41 56.049 10.57 23.032-4.2 43.981-14.04 63.997-6.58 13.383-14.53 40.361 3.68 48.802 3.36 1.558 6.91-2.423 4.09-5.298-3.02-3.074-5.48-5.802-6.7-10.027-1.27-4.385-.75-9.275.09-13.681 1.77-9.209 6.34-17.6 10.69-25.794 9.5-17.87 17.47-36.19 10.49-56.532-6.59-19.221-23.87-32.394-30.28-51.794-6.41-19.424-3.21-42.937 9.1-59.356.49-.654-.57-1.431-1.11-.86z"/><path d="m1055.44 136.416c-5.49 4.871-6.78 14.244-7.36 21.145-.78 9.414 1.33 17.708 7.31 25.047 7.54 9.237 17.24 16.373 24.34 25.996 7.72 10.461 12.05 22.799 12.63 35.766.56 12.482-3.57 23.735-10.88 33.694-6.29 8.588-13.68 16.052-18.78 25.503-7.2 13.367-14.76 35.49.87 45.874 2.44 1.619 5.18-2.032 3.09-4.01-12.4-11.748-1.19-33.282 6.53-44.577 6.17-9.029 14.26-16.508 19.84-25.982 5.68-9.628 7.41-21.254 6.78-32.262-1.28-22.491-14.46-39.844-30.63-54.284-7.95-7.094-15.19-14.145-16.42-25.154-1.01-9.067 1.15-17.512 4-25.986.27-.799-.77-1.261-1.32-.77z"/><path d="m929.998 214.067c6.523 3.795 11.892 9.846 16.97 15.352 5.137 5.569 10.15 11.379 14.78 17.378 9.956 12.903 16.153 27.844 16.858 44.202.609 14.13-4.401 25.675-9.361 38.517-3.952 10.231-9.214 24.964-2.031 35.009 2.916 4.076 9.139.597 6.781-3.964-5.949-11.508 1.606-25.964 5.796-36.9 5.22-13.622 7.173-26.99 4.849-41.542-2.378-14.888-10.003-28.581-19.757-39.877-9.677-11.205-20.594-23.02-34.231-29.294-.746-.343-1.389.691-.654 1.119z"/><path d="m932.695 215.635c9.233 10.505 18.359 24.438 19.061 38.714.74 15.047-7.375 29.391-11.425 43.493-3.87 13.474-3.249 27.297 4.059 39.462 6.769 11.268 16.933 19.649 22.266 31.909 1.661 3.817 7.86 1.078 6.653-2.804-3.913-12.586-14.471-21.084-21.732-31.64-9.523-13.846-6.615-29.547-1.735-44.524 4.54-13.934 9.885-27.946 6.567-42.784-1.619-7.238-5.796-13.737-10.018-19.7-3.492-4.932-7.265-10.525-12.811-13.272-.751-.371-1.44.514-.885 1.146z"/><path d="m904.102 139.836c2.583 2.46-4.547 13.132-5.821 15.389-3.38 5.981-7.081 11.783-10.616 17.672-9.815 16.351-9.919 36.944-4.877 54.848 6.311 22.415 21.027 40.509 32.854 60.089 5.44 9.006 9.62 18.748 10.419 29.333.965 12.775-3.997 24.322-7.717 36.238-1.579 5.056 6.13 7.061 7.85 2.164 4.223-12.024 8.29-23.942 8.004-36.845-.231-10.394-3.825-20.248-8.672-29.318-5.647-10.565-13.19-20.042-19.677-30.085-7.063-10.934-13.294-22.482-17.106-34.971-3.76-12.32-3.961-25.106-.911-37.588 1.688-6.908 5.038-12.519 8.456-18.66 2.131-3.83 16.308-26.064 8.424-29.314-.598-.247-1.038.64-.61 1.048z"/><path d="m898.74 157.183c-20.761 24.313-39.114 59.198-34.419 92.119 2.598 18.218 12.377 32.36 21.729 47.698 4.65 7.625 8.862 15.533 11.631 24.047 3.057 9.397 2.687 18.209-.164 27.557-1.284 4.211 5.396 7.182 7.215 3.041 15.39-35.046-21.779-63.932-31.33-94.445-10.832-34.604 9.765-70.137 26.484-99.133.404-.702-.596-1.529-1.146-.884z"/><path d="m982.821 74.705c2.76-.852 1.006 7.101.755 8.452-.985 5.302-3.603 10.193-6.131 14.889-4.558 8.468-8.333 16.666-9.437 26.303-.879 7.67.211 15.977 3.408 23.024 3.025 6.67 9.137 15.319 16.912 16.608 2.779.461 5.074-2.663 2.863-4.918-2.911-2.969-6.592-4.887-9.413-8.033-3.17-3.536-5-8.135-6.194-12.658-2.583-9.784-.774-20.482 3.201-29.608 3.901-8.955 9.142-17.428 9.451-27.462.122-3.933-.662-11.497-5.867-7.668-.504.37-.227 1.281.452 1.071z"/><path d="m985.583 77.532c2.145 8.246 6.957 15.424 9.315 23.586 2.624 9.086.873 21.108-1.349 30.088-1.987 8.03-14.787 25.872-6.019 33.129 2.724 2.254 7.781-.821 5.298-4.088-3.121-4.108 1.146-11.776 2.821-15.869 2.589-6.328 4.451-12.506 5.111-19.365.76-8.073.19-17.139-2.562-24.805-2.897-8.067-8.162-15.016-10.853-23.162-.367-1.113-2.061-.663-1.762.486z"/></g></g></svg>