<svg clip-rule="evenodd" fill-rule="evenodd" stroke-linejoin="round" stroke-miterlimit="2" viewBox="0 0 1689 1677" xmlns="http://www.w3.org/2000/svg"><g fill-rule="nonzero" transform="matrix(4.16667 0 0 4.16667 -1892.27 -3910.91)"><g fill="#7aafde"><path d="m624.74 1104.45c-21.17 13.3-47.424 18.3-72.1 15.23-10.89-1.35-21.706-3.6-32.09-7.17-5.532-1.9-10.821-4.41-15.846-7.39-4.92-2.93-8.639-6.82-12.87-10.55-2.406-2.13-6.632.66-4.654 3.59 6.137 9.09 17.51 14.71 27.377 18.66 11.182 4.48 23.253 6.83 35.182 8.18 27.088 3.07 53.361-3.7 75.717-19.33.738-.52.068-1.72-.716-1.22z"/><path d="m636.121 1173.79c14.155-12.38 30.055-21.38 46.579-30.17 15.388-8.18 31.863-17.56 49.836-17.19 13.582.27 25.101 9.86 29.557 22.34 4.597 12.87.509 26.66-8.839 36.18-1.19 1.21.549 2.81 1.814 1.81 11.021-8.72 15.409-22.58 13.121-36.19-2.35-13.99-13.021-24.84-26.406-28.76-18.351-5.37-38.368 4.5-53.968 13.32-18.582 10.5-38.908 20.89-52.755 37.6-.614.74.325 1.71 1.061 1.06z"/><path d="m595.911 1194.95c29.986-11.25 67.377-13.28 94.702 5.75 10.792 7.52 18.997 19.69 22.74 32.2 4.234 14.15-.598 27.05-12.387 35.65-1.488 1.08-.226 3.37 1.461 2.5 30.49-15.73 15.417-54.25-4.842-71.66-27.229-23.39-71.894-21.57-102.236-5.77-.726.38-.217 1.62.562 1.33z"/><path d="m495.422 1198.8c8.71 12.78 19.654 21.01 35.567 20.81 21.324-.26 42.695-10.57 60.295-21.87 1.466-.94.528-3.65-1.241-2.95-18.122 7.16-34.805 16.86-54.467 19.39-7.336.94-15.058.64-21.884-2.42-6.766-3.03-12.063-8.61-17.156-13.82-.554-.56-1.575.19-1.114.86z"/><path d="m550.598 1105.42c-11.469-.41-22.123-3.95-32.413-8.84-4.698-2.24-9.197-4.89-13.635-7.59-3.935-2.4-7.789-5.47-12.121-7.06-2.158-.8-3.671 2.22-2.166 3.72 3.632 3.6 8.772 6.09 13.161 8.68 4.996 2.94 10.139 5.61 15.451 7.93 10.098 4.42 20.99 6.24 31.906 4.51.796-.13.56-1.33-.183-1.35z"/><path d="m593.261 1234.56c-10.025 5.77-21.147 9.21-30.804 15.69-4.481 3.01-8.984 5.44-14.189 6.95-5.246 1.52-10.926 1.47-16.067 3.22-2.195.75-1.898 4.15.559 4.13 9.85-.05 20.644-3.55 28.877-8.86 5.449-3.51 10.513-7.26 16.254-10.35 5.49-2.95 10.983-5.96 16.086-9.56.736-.52.089-1.69-.716-1.22z"/><path d="m659.155 939.925c-22.607-2.805-45.551 1.687-67.077 8.68-21.233 6.897-41.298 17.331-59.182 30.677-36.96 27.578-62.642 67.848-73.028 112.698-10.77 46.51-6.513 98.01 14.233 141.17 18.158 37.77 49.902 67.38 87.433 85.48 39.059 18.84 84.965 26.24 127.945 20.44 46.638-6.29 90.086-29.13 121.605-64.09 31.149-34.56 48.522-79.88 48.228-126.39-.277-43.93-11.463-88.21-36.244-124.83-37.534-55.46-103.835-85.762-170.032-85.131-4.571.044-4.429 6.615 0 6.993 44.942 3.83 89.235 15.136 125.323 43.407 33.356 26.131 55.252 63.501 65.272 104.381 11.166 45.55 8.889 94.35-12.501 136.56-21.095 41.64-58.496 73.89-102.107 90.09-81.13 30.14-184.52 2.83-234.558-69.24-27.304-39.32-35.721-88.49-31.076-135.5 4.726-47.84 27.688-91.94 64.027-123.323 17.941-15.494 38.987-27.367 61.23-35.454 22.777-8.281 46.634-11.138 70.509-14.257 1.513-.197 1.523-2.172 0-2.361z"/></g><g fill="#005aaa"><path d="m659.128 965.748c-22.104-3.162-44.887 2.005-65.64 9.673-20.791 7.681-39.972 19.28-56.534 33.989-35.948 31.93-54.662 77.84-56.535 125.36-1.797 45.61 12.039 90.78 43.258 124.61 28.374 30.75 68.975 48.52 110.011 53.88 46.965 6.14 94.418-4.28 132.649-32.81 37.196-27.75 61.625-69.92 66.385-116.13 4.476-43.45-6.715-90.62-31.437-126.7-24.025-35.06-61.426-58.755-102.579-68.35-14.823-3.455-29.998-5.241-45.213-4.993-4.58.074-4.419 6.582 0 6.992 44.663 4.142 87.895 16.662 120.876 48.511 31.401 30.33 46.945 72.88 49.602 115.85 2.956 47.82-14.397 93.15-49.329 126.13-35.157 33.2-82.971 47.46-130.665 43.62-41.789-3.37-82.788-20.32-112.262-50.53-32.883-33.71-45.595-80.27-43.396-126.5 2.129-44.77 21.555-86.47 55.289-116.09 15.784-13.854 34.423-24.43 54.129-31.593 19.855-7.216 40.65-9.514 61.391-12.643 1.128-.17 1.135-2.114 0-2.276z"/><path d="m489.365 1106.48c4.776 4.01 6.546 10.32 10.634 14.94 4.399 4.96 10.784 8.05 16.835 10.48 14.452 5.79 29.886 6.91 45.297 5.78 25.86-1.9 53.453-7.97 76.229-20.71 19.71-11.02 38.704-31.29 37.082-55.33-1.461-21.66-19.088-37.86-40.458-38.73-21.82-.89-44.647 18.87-37.166 41.93 3.229 9.95 12.565 15.94 22.879 14.58 3.956-.52 7.806-1.79 10.608-4.75 3.336-3.52 1.734-7.03.23-10.78-.824-2.05-4.056-1.93-4.05.55.006 2.14.789 3.82-.856 5.56-1.332 1.41-4.117 1.87-5.932 2.1-5.98.74-10.929-1.21-14.208-6.44-7.084-11.28 1.8-25.11 11.865-30.65 20.72-11.39 45.951 4.1 48.118 26.63 2.429 25.26-23.067 44.02-43.396 53.07-11.708 5.2-24.404 8.32-36.902 10.94-15.395 3.24-31.032 5.38-46.774 3.98-10.067-.89-20.004-3.93-29.112-8.23-4.141-1.96-8.131-4.22-11.333-7.52-2.92-3.02-4.89-6.48-8.483-8.84-.862-.56-1.905.77-1.107 1.44z"/><path d="m487.364 1112.33c.316 9.21 9.321 16.12 16.039 21.12 9.529 7.1 20.021 12.64 31.285 16.41 26.124 8.75 54.512 5.9 80.854-.35 24.308-5.76 47.526-16.94 64.378-35.75 8.62-9.63 15.636-20.97 17.097-34.03 1.505-13.44-1.946-26.55-8.61-38.21-10.388-18.19-29.096-25.53-49.4-23.87-1.634.14-1.616 2.37 0 2.53 13.132 1.28 25.729 4.42 35.276 14.09 9.907 10.03 14.879 25.11 15.096 38.98.427 27.27-25.769 48.37-48.072 59.2-11.619 5.64-24.224 9.18-36.836 11.77-13.422 2.76-27.235 4.63-40.953 4.15-15.251-.53-30.7-4.2-44.32-11.12-9.55-4.85-19.262-10.46-26.586-18.4-1.769-1.91-3.041-4.19-3.533-6.75-.187-.97-1.748-.74-1.715.23z"/><path d="m486.51 1158.41c10.287 8.04 20.261 16.87 32.321 22.18 12.389 5.46 26.456 4.87 39.435 2.2 29.275-6.02 55.341-24.51 80.724-39.3 25.641-14.95 52.272-28.91 81.519-35.15 22.858-4.88 50.065-3.46 63.63 18.31 13.896 22.3 5.783 56.37-18.075 68.23-14.079 7.01-34.571 4.05-43.455-9.67-4.804-7.42-3.897-15.62-.341-23.21 3.005-6.42 9.238-16.04 17.196-10.72 1.228.82 2.584-1.01 1.555-2.01-14.165-13.82-28.861 14.35-28.608 26.18.5 23.41 26.191 33.2 46.057 30 35.524-5.71 48.597-50.99 33.702-79.98-10.179-19.8-31.871-27.42-53.044-26.78-27.471.83-54.49 12.35-78.53 24.78-27.469 14.2-52.841 32.42-80.984 45.31-14.008 6.42-29.174 10.9-44.694 10.3-14.759-.57-27.534-7.91-39.306-16.15-2.725-1.91-5.433-3.84-8.168-5.73-.716-.5-1.623.67-.934 1.21z"/><path d="m487.678 1167.88c9.308 9.09 17.379 18.62 28.682 25.42 11.732 7.05 25.465 9.17 38.967 8.17 29.094-2.13 55.671-17.51 78.965-33.99 22.192-15.69 43.452-33.54 69.313-42.95 24.675-8.97 62.871-11.04 71.574 20.6 6.773 24.62-13.198 48.75-38.778 44.88-1.64-.25-3.061 2.16-1.241 2.94 21.977 9.5 45.013-9.79 47.931-31.5 1.53-11.39-1.015-23.9-8.293-32.99-8.028-10.03-20.567-15.33-33.063-16.84-26.42-3.2-53.86 10.2-75.269 24.23-23.12 15.15-43.925 33.45-68.765 45.93-18.647 9.36-40.3 16.1-61.342 13.02-18.39-2.7-34.298-15.83-47.562-28.04-.748-.69-1.852.4-1.119 1.12z"/><path d="m557.056 1150.79c12.318 7.11 23.65 15.22 37.446 19.35 14.404 4.32 30.681 4.82 45.575 3.98 26.689-1.49 52.471-10.37 75.42-23.86 20.647-12.14 38.979-29.17 48.161-51.66 9.043-22.14 4.374-53.35-21.994-59.93-8.778-2.2-17.911-.23-23.954 6.69-5.607 6.41-7.309 16.16-4.132 24.03 4.221 10.45 27.235 14.81 27.266-.22.003-1.48-2.239-1.81-2.6-.35-1.262 5.11-6.231 5.5-10.669 4.6-5.307-1.08-8.624-3.93-9.81-9.23-1.337-5.97 1.716-12.52 5.919-16.58 5.028-4.85 13.022-3.73 18.991-1.72 14.043 4.73 18.411 20.61 17.821 33.99-.553 12.53-7.086 24.68-14.413 34.52-14.943 20.07-38.177 33.46-61.012 42.6-28.35 11.35-61.03 14.59-90.919 7.72-12.719-2.92-24.565-9.8-36.38-15.16-.816-.37-1.523.76-.716 1.23z"/><path d="m504.013 1227.72c4.738 1.88 9.435 5.32 14.679 5.63 7.305.42 14.823-3.32 21.473-5.92 15.152-5.93 29.844-12.99 45.078-18.71 13.605-5.11 28.03-8.42 42.556-9.15 13.61-.68 26.329 2.34 38.562 8.17 11.29 5.38 22.265 13.03 29.019 23.75 6.905 10.97 5.779 24.05-2.947 33.53-13.081 14.2-52.911 24.84-58.767-1.53-2.498-11.26 6.146-22.89 16.116-27.05 9.309-3.89 20.493 7.75 9.232 13.24-2.561 1.25-.716 5.71 1.952 4.63 7.919-3.19 11.275-10.74 6.255-18.21-5.555-8.26-15.615-7.56-23.456-3.44-19.283 10.13-23.767 40.32-2.823 51.16 9.568 4.95 21.489 3.55 31.487.86 10.771-2.9 21.111-8.42 28.099-17.28 7.166-9.08 8.673-20.47 5.201-31.37-3.509-11.02-12.386-19.5-21.511-26.07-10.784-7.76-24.002-13.53-37.078-15.93-15.215-2.79-31.165-.54-46.012 3.19-16.201 4.07-31.527 11.21-46.678 18.1-8.838 4.02-17.718 7.94-26.724 11.57-4.011 1.62-7.942 2.77-12.289 2.06-3.719-.61-7.322-1.94-11.047-2.6-.909-.16-1.225 1.04-.377 1.37z"/><path d="m518.38 1244.79c12.889 11.3 30.005 2.55 43.114-3.93 20.487-10.13 39.862-23.74 62.812-27.54 20.273-3.35 45.288 1.24 57.531 19.07 4.798 6.99 8.002 16.48 6.155 24.95-1.597 7.32-6.864 17.71-14.573 20.02-1.855.55-1.586 3.66.472 3.48 15.954-1.35 22.441-22.03 20.147-35.32-1.575-9.12-6.778-17.56-13.17-24.09-7.602-7.76-18.175-11.21-28.568-13.31-24.306-4.91-46.56 3.05-67.712 14.41-10.691 5.75-21.097 11.96-31.921 17.47-9.586 4.87-23.326 11.56-33.082 3.58-.837-.68-2.041.47-1.205 1.21z"/></g></g></svg>