<svg clip-rule="evenodd" fill-rule="evenodd" stroke-linecap="round" stroke-linejoin="round" stroke-miterlimit="2" viewBox="0 0 351 244" xmlns="http://www.w3.org/2000/svg"><g fill="none" stroke="#666" stroke-width="6.61" transform="translate(-1912.5 -1871.4)"><path d="m1922.86 2081.08h330.14c3.92 0 7.05 3.19 7.05 7.1 0 3.93-3.13 7.06-7.05 7.06h-330.14c-3.92 0-7.06-3.13-7.06-7.06 0-3.91 3.14-7.1 7.06-7.1z"/><path d="m2022.46 2087.68c.95-14.72-1.18-15.11-.96-20.66 13.05-14.44 15.68-24.91 17.92-35.6 2.35-11.54 2.91-23.12 5.26-35.89 12.32 18.37 6.27 51.17-.95 58.11l-14.95 5.43m39.69-112.58c-.84 3.58-.16 11.25-3.41 12.21-21.72 6.43-40.65 8.84-44.06 21.44-4.93 18.13.17 33.81-2.18 52.84-1.63 12.94-10.42 24.86-18.25 38.47-12.32 28.21 11.08 59.51 13.66 18.42 2.63 2.12 4.75 16.12 8.23-2.19"/><path d="m2104.81 1917.43c0 19.49-11.03 35.27-24.64 35.27-13.66 0-24.68-15.78-24.68-35.27 0-19.42 11.02-35.21 24.68-35.21 13.61 0 24.64 15.79 24.64 35.21z"/><path d="m2085.21 1875.44c-16.51-5.87-44.34 24.53-29.72 41.99 7.72-5.54 13.66-17.91 29.55-25.64 3.81 7.23 5.83 19.43 19.77 25.64 8.12-6.66 1.12-44.73-19.6-41.99z"/><path d="m2043.45 1965.08c12.04 20.99 11.81 36.89 7.95 51.28"/><path d="m2105.82 1920.74c4.42 6.83 14.89 9.91 7.05 32.52-4.98-4.03-7.95-.95-12.71-11.98"/><path d="m2141.7 2089.14c-.95-14.72 1.18-15.12.95-20.66-13.04-14.44-15.67-24.86-17.91-35.6-2.35-11.54-2.91-23.13-5.21-35.89-12.32 18.36-6.32 51.22.95 58.17l14.9 5.37m-39.7-112.58c.84 3.58-.17 10.85 3.08 11.86 21.72 6.44 40.98 9.19 44.4 21.84 4.98 18.08-.17 33.76 2.18 52.79 1.62 12.99 10.41 24.86 18.25 38.46 12.37 28.22-11.03 59.57-13.6 18.48-2.63 2.13-4.82 16.12-8.29-2.24"/><path d="m2055.04 1962.89c2.63 25.36 52.17 21.61 53.97.45" stroke-linejoin="miter"/><path d="m2118.52 1967.82c-12.03 20.99-11.81 36.89-7.95 51.28"/><path d="m1953.87 2070.83c-7.27-4.03-16.96-11.36-21.38-16.24-9.07-10.01-12.26-19.03-10.13-28.83 3.58-16.9 21.72-20.32 32.91-6.26l1.74 2.18.95-1.57c1.23-2.02 4.82-5.32 7.39-6.78 6.94-4.03 15.4-3.24 20.55 1.91 2.4 2.41 4.64 6.66 5.43 10.41 2.41 11.42-2.52 22.45-14.89 33.37-4.48 3.97-13.44 10.24-17.47 12.31l-2.18 1.12z"/><path d="m1934.9 2042.22c1.51 5.49 16.96 18.31 21.94 19.82"/><path d="m1931.7 2035.17-.33-1.06"/></g></svg>