<svg clip-rule="evenodd" fill-rule="evenodd" stroke-linecap="round" stroke-linejoin="round" stroke-miterlimit="2" viewBox="0 0 247 302" xmlns="http://www.w3.org/2000/svg"><g transform="translate(-1964.91 -709.126)"><path d="m1968.21 766.453 188.78-39.747 50.72 240.62-188.84 39.804z" fill="none" stroke="#666" stroke-width="6.61"/><path d="m1982.76 774.963 164.32-34.654 45.51 215.874-164.37 34.655z" fill="none" stroke="#666" stroke-width="6.61"/><path d="m2041.27 738.293c-15.51 3.302-15.9 17.914-13.5 36.054l77.88-16.405c-5.1-17.579-12.37-30.566-27.94-27.318z" fill="#fff" fill-rule="nonzero"/><path d="m2041.27 738.293c-15.51 3.302-15.9 17.914-13.5 36.054l77.88-16.405c-5.1-17.579-12.37-30.566-27.94-27.318z" fill="none" stroke="#666" stroke-width="6.61"/><path d="m2036.45 720.769 39.69-8.34 3.75 17.86-39.69 8.339z" fill="#fff" fill-rule="nonzero"/><path d="m2036.45 720.769 39.69-8.34 3.75 17.86-39.69 8.339z" fill="none" stroke="#666" stroke-width="6.61"/><path d="m2014.73 812.866 23.46-4.983 4.98 23.513-23.51 4.924z" fill="#fff" fill-rule="nonzero"/><g fill="none"><path d="m2014.73 812.866 23.46-4.983 4.98 23.513-23.51 4.924z" stroke="#666" stroke-width="6.61"/><path d="m2057.39 806.928 76.31-16.066"/><path d="m2057.39 806.928 76.31-16.066" stroke="#666" stroke-width="6.61"/><path d="m2061.14 824.507 76.31-16.066"/><path d="m2061.14 824.507 76.31-16.066" stroke="#666" stroke-width="6.61"/></g><path d="m2026.88 870.585 23.45-4.982 4.99 23.512-23.52 4.928z" fill="#fff" fill-rule="nonzero"/><path d="m2026.88 870.585 23.45-4.982 4.99 23.512-23.52 4.928z" fill="none" stroke="#666" stroke-width="6.61"/><path d="m2069.59 864.651 76.25-16.07" fill="none"/><path d="m2069.59 864.651 76.25-16.07" fill="none" stroke="#666" stroke-width="6.61"/><path d="m2073.29 882.23 76.31-16.07" fill="none"/><path d="m2073.29 882.23 76.31-16.07" fill="none" stroke="#666" stroke-width="6.61"/><path d="m2039.03 928.304 23.51-4.982 4.93 23.512-23.46 4.928z" fill="#fff" fill-rule="nonzero"/><g fill="none"><path d="m2039.03 928.304 23.51-4.982 4.93 23.512-23.46 4.928z" stroke="#666" stroke-width="6.61"/><path d="m2081.74 922.37 76.31-16.124"/><path d="m2081.74 922.37 76.31-16.124" stroke="#666" stroke-width="6.61"/><path d="m2085.44 939.949 76.3-16.07"/><g stroke="#666" stroke-width="6.61"><path d="m2085.44 939.949 76.3-16.07"/><path d="m2022.96 820.254 7.28 7.726 16.29-21.945"/><path d="m2034.88 877.076 7.28 7.673 16.35-21.891"/></g></g></g></svg>