<svg clip-rule="evenodd" fill-rule="evenodd" stroke-linecap="round" stroke-linejoin="round" stroke-miterlimit="2" viewBox="0 0 273 273" xmlns="http://www.w3.org/2000/svg"><g transform="translate(-1375.34 -738.124)"><path d="m1491.67 939.614c-26.26-19.762-66.12-1.906-67.97 38.908 12.94-25.138 89.58 24.348 67.97-38.908z" fill="#fff" fill-rule="nonzero"/><path d="m1491.67 939.614c-26.26-19.762-66.12-1.906-67.97 38.908 12.94-25.138 89.58 24.348 67.97-38.908z" fill="none" stroke="#666" stroke-width="6.61"/><path d="m1538.19 940.62c26.31-19.762 66.12-1.903 68.02 38.908-12.99-25.134-89.63 24.352-68.02-38.908z" fill="#fff" fill-rule="nonzero"/><path d="m1538.19 940.62c26.31-19.762 66.12-1.903 68.02 38.908-12.99-25.134-89.63 24.352-68.02-38.908z" fill="none" stroke="#666" stroke-width="6.61"/><path d="m1519.04 1007.07c26.21-21.215 46.13-43.105-5.65-71.655-47.08 27.377-31.35 51.111 5.65 71.655z" fill="#fff" fill-rule="nonzero"/><path d="m1519.04 1007.07c26.21-21.215 46.13-43.105-5.65-71.655-47.08 27.377-31.35 51.111 5.65 71.655z" fill="none" stroke="#666" stroke-width="6.61"/><path d="m1471.91 952.487c-6.78.114-13.33 1.513-19.94 3.08" fill="#fff" fill-rule="nonzero"/><path d="m1471.91 952.487c-6.78.114-13.33 1.513-19.94 3.08" fill="none" stroke="#666" stroke-width="6.61"/><path d="m1517.03 888.444c14.27-26.483 25.19-53.746-3.14-89.352-25.69 34.152-17.13 63.711 3.14 89.352z" fill="#fff" fill-rule="nonzero"/><path d="m1517.03 888.444c14.27-26.483 25.19-53.746-3.14-89.352-25.69 34.152-17.13 63.711 3.14 89.352z" fill="none" stroke="#666" stroke-width="6.61"/><path d="m1494.24 932.67c11.98-38.908 19.65-78.264-22.39-122.775-24.3 51.396-7.67 90.752 22.39 122.775z" fill="#fff" fill-rule="nonzero"/><path d="m1494.24 932.67c11.98-38.908 19.65-78.264-22.39-122.775-24.3 51.396-7.67 90.752 22.39 122.775z" fill="none" stroke="#666" stroke-width="6.61"/><path d="m1448.45 908.877c-11.03-44.117-42.44-44.284-69.81-37.173 47.25 24.355 28.32 54.585 68.46 73.282 26.82 12.262 53.86 10.191 67.02 8.398-15.01-10.635-45.41-11.419-65.67-44.507z" fill="#fff" fill-rule="nonzero"/><path d="m1448.45 908.877c-11.03-44.117-42.44-44.284-69.81-37.173 47.25 24.355 28.32 54.585 68.46 73.282 26.82 12.262 53.86 10.191 67.02 8.398-15.01-10.635-45.41-11.419-65.67-44.507z" fill="none" stroke="#666" stroke-width="6.61"/><path d="m1528.9 932.67c-11.98-38.853-19.6-78.21 22.45-122.775 24.29 51.396 7.61 90.807-22.45 122.775z" fill="#fff" fill-rule="nonzero"/><path d="m1528.9 932.67c-11.98-38.853-19.6-78.21 22.45-122.775 24.29 51.396 7.61 90.807-22.45 122.775z" fill="none" stroke="#666" stroke-width="6.61"/><path d="m1574.69 908.932c11.03-44.113 42.44-44.281 69.81-37.174-47.19 24.355-28.27 54.585-68.41 73.287-26.87 12.257-53.91 10.187-67.01 8.397 14.95-10.639 45.35-11.422 65.61-44.51z" fill="#fff" fill-rule="nonzero"/><path d="m1574.69 908.932c11.03-44.113 42.44-44.281 69.81-37.174-47.19 24.355-28.27 54.585-68.41 73.287-26.87 12.257-53.91 10.187-67.01 8.397 14.95-10.639 45.35-11.422 65.61-44.51z" fill="none" stroke="#666" stroke-width="6.61"/><path d="m1571.28 921.08c1.17-6.156 14.95-27.037 32.36-35.267" fill="#fff" fill-rule="nonzero"/><path d="m1571.28 921.08c1.17-6.156 14.95-27.037 32.36-35.267" fill="none" stroke="#666" stroke-width="6.61"/><path d="m1514.4 831.17c-29.73 47.197-53.24 94.448 0 118.967 53.18-24.519 29.67-71.77 0-118.967z" fill="#fff" fill-rule="nonzero"/><path d="m1514.4 831.17c-29.73 47.197-53.24 94.448 0 118.967 53.18-24.519 29.67-71.77 0-118.967z" fill="none" stroke="#666" stroke-width="6.61"/><path d="m1526.1 875.341c7.89 13.493 5.99 27.041 2.8 40.589" fill="#fff" fill-rule="nonzero"/><path d="m1526.1 875.341c7.89 13.493 5.99 27.041 2.8 40.589" fill="none" stroke="#666" stroke-width="6.61"/><path d="m1510.53 955.793c10.36-23.458-9.23-56.713-37.95-70.319-18.98-8.901-28.72-35.661-33.26-49.992-16.01 52.904-1.57 115.664 71.21 120.311z" fill="#fff" fill-rule="nonzero"/><path d="m1510.53 955.793c10.36-23.458-9.23-56.713-37.95-70.319-18.98-8.901-28.72-35.661-33.26-49.992-16.01 52.904-1.57 115.664 71.21 120.311z" fill="none" stroke="#666" stroke-width="6.61"/><path d="m1516.47 955.232c-10.36-23.458 9.24-56.713 38.01-70.261 18.93-8.955 28.67-35.716 33.2-50.051 16.07 52.963 1.62 115.665-71.21 120.312z" fill="#fff" fill-rule="nonzero"/><g fill="none"><path d="m1516.47 955.232c-10.36-23.458 9.24-56.713 38.01-70.261 18.93-8.955 28.67-35.716 33.2-50.051 16.07 52.963 1.62 115.665-71.21 120.312z" stroke="#666" stroke-width="6.61"/><path d="m1613.1 881.669 1.68-.616"/><path d="m1613.1 881.669 1.68-.616" stroke="#666" stroke-width="6.61"/></g><path d="m1522.46 777.427c0 5.486-4.48 9.965-10.02 9.965-5.49 0-9.97-4.479-9.97-9.965 0-5.544 4.48-10.023 9.97-10.023 5.54 0 10.02 4.479 10.02 10.023z" fill="#fff" fill-rule="nonzero"/><path d="m1522.46 777.427c0 5.486-4.48 9.965-10.02 9.965-5.49 0-9.97-4.479-9.97-9.965 0-5.544 4.48-10.023 9.97-10.023 5.54 0 10.02 4.479 10.02 10.023z" fill="none" stroke="#666" stroke-width="6.61"/><path d="m1518.43 747.139c0 3.189-2.58 5.766-5.71 5.766-3.19 0-5.77-2.577-5.77-5.766 0-3.135 2.58-5.712 5.77-5.712 3.13 0 5.71 2.577 5.71 5.712z" fill="#fff" fill-rule="nonzero"/><path d="m1518.43 747.139c0 3.189-2.58 5.766-5.71 5.766-3.19 0-5.77-2.577-5.77-5.766 0-3.135 2.58-5.712 5.77-5.712 3.13 0 5.71 2.577 5.71 5.712z" fill="none" stroke="#666" stroke-width="6.61"/><path d="m1516.58 955.848c1.01 8.004.78 16.011.39 24.016" fill="#fff" fill-rule="nonzero"/><path d="m1516.58 955.848c1.01 8.004.78 16.011.39 24.016" fill="none" stroke="#666" stroke-width="6.61"/><path d="m1557.06 952.32c8.06.113 15.95 1.513 23.79 3.079" fill="#fff" fill-rule="nonzero"/><path d="m1557.06 952.32c8.06.113 15.95 1.513 23.79 3.079" fill="none" stroke="#666" stroke-width="6.61"/><path d="m1502.3 942.858c-6.21.506-30-7.388-42.49-22" fill="#fff" fill-rule="nonzero"/><g fill="none"><path d="m1502.3 942.858c-6.21.506-30-7.388-42.49-22" stroke="#666" stroke-width="6.61"/><path d="m1453.32 912.795-1.01-1.512"/><path d="m1453.32 912.795-1.01-1.512" stroke="#666" stroke-width="6.61"/><path d="m1470.62 864.874-.45-1.735"/><path d="m1470.62 864.874-.45-1.735" stroke="#666" stroke-width="6.61"/><path d="m1473.92 882.339-2.13-8.117"/><path d="m1473.92 882.339-2.13-8.117" stroke="#666" stroke-width="6.61"/><path d="m1558.96 962.285-1.79-.11"/><path d="m1558.96 962.285-1.79-.11" stroke="#666" stroke-width="6.61"/><path d="m1443.97 958.647-1.57.838"/><path d="m1443.97 958.647-1.57.838" stroke="#666" stroke-width="6.61"/><path d="m1521.34 867.279-.78-1.622"/><path d="m1521.34 867.279-.78-1.622" stroke="#666" stroke-width="6.61"/></g></g></svg>