<svg clip-rule="evenodd" fill-rule="evenodd" stroke-linecap="round" stroke-linejoin="round" stroke-miterlimit="2" viewBox="0 0 247 227" xmlns="http://www.w3.org/2000/svg"><g fill="none" transform="translate(-837.212 -1888.16)"><path d="m866.435 1941.9v-33.76c0-9.24 7.39-16.68 16.628-16.68h130.777c9.24 0 16.63 7.44 16.63 16.68v22m-78.715 163.53h-68.692c-9.238 0-16.628-7.44-16.628-16.68v-26.87" stroke="#666" stroke-width="6.61"/><path d="m935.968 1907.02h35.494"/><path d="m935.968 1907.02h35.494" stroke="#666" stroke-width="6.61"/><path d="m925.443 1906.85.784.4"/><g stroke="#666" stroke-width="6.61"><path d="m925.443 1906.85.784.4"/><path d="m950.524 2070.77c0 5.04-4.031 9.08-9.014 9.08-5.038 0-9.069-4.04-9.069-9.08 0-4.98 4.031-9.01 9.069-9.01 4.983 0 9.014 4.03 9.014 9.01z"/><path d="m976.668 1946.21h64.722c7.55 0 13.6 6.04 13.6 13.6v137.72c0 7.51-6.05 13.55-13.6 13.55h-64.722c-7.501 0-13.604-6.04-13.604-13.55v-137.72c0-7.56 6.103-13.6 13.604-13.6z"/></g><path d="m1003.32 1959.14h21.72"/><path d="m1003.32 1959.14h21.72" stroke="#666" stroke-width="6.61"/><path d="m993.072 1958.92.84.39"/><path d="m993.072 1958.92.84.39" stroke="#666" stroke-width="6.61"/><path d="m1014.96 2094.51c0 3.25-2.63 5.94-5.93 5.94-3.25 0-5.94-2.69-5.94-5.94s2.69-5.93 5.94-5.93c3.3 0 5.93 2.68 5.93 5.93z" stroke="#666" stroke-width="6.61"/></g></svg>