<svg fill="none" height="53" viewBox="0 0 60 53" width="60" xmlns="http://www.w3.org/2000/svg"><g fill="#565656"><path d="m27.9989 52.219c-.1501 0-.3001-.03-.4302-.1-.21-.1-5.2516-2.5408-11.0134-7.1223-.4301-.3401-.5102-.9702-.1601-1.4004.3401-.4301.9703-.5002 1.4005-.1601 4.6315 3.6712 8.8726 5.9719 10.2036 6.662 2.7008-1.4004 17.2855-9.4328 23.3476-22.3073.24-.5001.8302-.7202 1.3304-.4801.5001.2301.7102.8303.4801 1.3304-6.9622 14.7945-23.9974 23.1376-24.7176 23.4878-.1401.07-.2901.1-.4302.1z"/><path d="m2.98122 27.431c-.40013 0-.77023-.2401-.93028-.6302-1.16037-2.931-1.840587-5.952-2.0206119-8.9629-.2800891-4.6215 1.3904619-9.22278 4.5714419-12.63379.38012-.40012 1.0103-.43014 1.41043-.05001.40013.38012.43014 1.0103.05002 1.41043-2.81088 3.01094-4.28137 7.08197-4.0313 11.15367.17005 2.8009.80025 5.6117 1.8806 8.3425.20006.5101-.05002 1.0903-.56018 1.3003-.12004.0501-.25008.07-.37012.07z"/><path d="m52.0772 8.29521c-.3101 0-.6102-.14004-.8102-.41013-2.6309-3.56113-6.8425-5.68181-11.2638-5.68181-4.4212 0-8.5224 2.05064-11.2035 5.63181-.3801.50016-1.2204.50016-1.6005 0-2.9009-3.87125-7.5026-5.9619-12.3342-5.58181-2.1006.16005-4.0813.82023-5.88188 1.94059-.47015.29009-1.09033.15005-1.38041-.3201-.29007-.47015-.15005-1.08035.3201-1.38041 2.07068-1.30038 4.36139-2.050637 6.79189-2.240713 5.0817-.390128 9.9533 1.600513 13.2843 5.391733 3.0409-3.48111 7.3521-5.441733 12.014-5.441733 5.0616 0 9.8733 2.430793 12.8739 6.501913.3301.44014.2301 1.07035-.2101 1.40044-.18.13004-.3901.20007-.5902.20007z"/><path d="m35.942 33.2528c.04-.18.06-.3601.06-.5402 0-1.3804-1.1203-2.5007-2.5007-2.5007h-5.7818c.6002-1.6005.23-3.4611-1.0204-4.7115-.2001-.2001-.4702-.3001-.7503-.2901s-.5401.14-.7202.3501l-5.7018 6.6524h-10.13311c-.55018 0-1.00032.4501-1.00032 1.0003 0 .5501.45014 1.0003 1.00032 1.0003h10.59341c.2901 0 .5702-.13.7603-.3501l5.1316-5.982c.2301.7003.14 1.4805-.2901 2.1307l-.4301.6502c-.2001.3101-.2201.7002-.05 1.0203.17.3201.5101.5302.8802.5302h7.5026c.2801 0 .5001.2201.5001.5002s-.22.5001-.5001.5001h-5.5018c-.5502 0-1.0003.4502-1.0003 1.0004 0 .5501.4501 1.0003 1.0003 1.0003h7.5026c.28 0 .5001.22.5001.5001s-.2201.5002-.5001.5002h-7.5026c-.5502 0-1.0003.4501-1.0003 1.0003s.4501 1.0003 1.0003 1.0003h5.5018c.2801 0 .5001.2201.5001.5002s-.22.5001-.5001.5001h-5.5018c-.5502 0-1.0003.4502-1.0003 1.0004 0 .5501.4501 1.0003 1.0003 1.0003h3.5011c.2801 0 .5002.2201.5002.5001 0 .2801-.2201.5002-.5002.5002h-4.7314c-1.6406 0-3.2411-.4401-4.6415-1.2904l-2.6209-1.5705c-.2101-.13-.4601-.17-.7002-.12l-5.2817.9903h-.06c-2.3508.4402-4.75157-.18-6.59222-1.7105-1.84059-1.5205-2.89091-3.7712-2.89091-6.152 0-.5502-.45014-1.0003-1.00032-1.0003-.55017 0-1.00031.4501-1.00031 1.0003 0 2.9809 1.32042 5.7818 3.61113 7.6927 2.29071 1.9006 5.27173 2.6808 8.18243 2.1407h.06l4.9616-.9303 2.2907 1.3704c1.7106 1.0304 3.6712 1.5705 5.6719 1.5705h4.7314c1.3804 0 2.5008-1.1204 2.5008-2.5008 0-.19-.02-.3701-.06-.5401 1.1703-.2101 2.0607-1.2304 2.0607-2.4608 0-.1901-.02-.3702-.06-.5402 1.1703-.2101 2.0606-1.2304 2.0606-2.4608s-.8902-2.2507-2.0606-2.4609z"/><path d="m59.3095 11.8162c-.2101-.5101-.8003-.7502-1.3105-.5401-.5101.21-.7502.8002-.5401 1.3104.3701.8803.5501 1.8105.5501 2.7708 0 2.8209-1.6705 5.3918-4.2413 6.5519-1.3304.6002-2.8009.7702-4.2513.5002l-6.332-1.1904c-.2401-.0401-.4902 0-.7003.12l-2.6209 1.5705c-1.4004.8402-3.0009 1.2904-4.6315 1.2904h-4.7314c-.2801 0-.5002-.2201-.5002-.5002s.2201-.5001.5002-.5001h3.5011c.5502 0 1.0003-.4502 1.0003-1.0004 0-.5501-.4501-1.0003-1.0003-1.0003h-5.5018c-.2801 0-.5001-.2201-.5001-.5001 0-.2801.22-.5002.5001-.5002h5.5018c.5502 0 1.0003-.4501 1.0003-1.0003s-.4501-1.0003-1.0003-1.0003h-7.5026c-.28 0-.5001-.2201-.5001-.5002s.2201-.5002.5001-.5002h7.5026c.5502 0 1.0003-.4501 1.0003-1.0003s-.4501-1.0003-1.0003-1.0003h-5.5018c-.2801 0-.5001-.2201-.5001-.5001 0-.2801.22-.5002.5001-.5002h7.5026c.3701 0 .7102-.2001.8802-.5302.1701-.3201.1601-.7202-.05-1.0203l-.4301-.6502c-.4302-.6402-.5102-1.4305-.2901-2.1207l5.1316 5.9819c.1901.2201.4702.3502.7603.3502h9.313c1.3204 0 2.5008-.6202 3.2611-1.6906.7603-1.0703.9403-2.4507.5001-3.6911-.18-.5202-.7602-.7903-1.2804-.6102-.5201.19-.7902.7602-.6102 1.2804.2301.6402.1401 1.3204-.25 1.8706-.3802.5402-.9703.8403-1.6306.8403h-8.8527l-5.7018-6.65239c-.1801-.21006-.4401-.34011-.7202-.35011-.2901-.01001-.5502.09002-.7503.29008-1.2504 1.25039-1.6205 3.10102-1.0203 4.71152h-5.7819c-1.3804 0-2.5007 1.1204-2.5007 2.5008 0 .19.02.3701.06.5401-1.1704.2101-2.0607 1.2304-2.0607 2.4609 0 1.2304.8903 2.2507 2.0607 2.4608-.04.18-.06.3601-.06.5401 0 1.2304.8903 2.2507 2.0607 2.4609-.04.18-.06.3601-.06.5401 0 1.3804 1.1203 2.5008 2.5007 2.5008h4.7315c2.0006 0 3.9613-.5402 5.6718-1.5705l2.3008-1.3804 5.9619 1.1204c1.8506.3401 3.7312.12 5.4317-.6402 3.2911-1.4805 5.4218-4.7715 5.4218-8.3726 0-1.2304-.2401-2.4208-.7102-3.5512z"/></g></svg>