<svg clip-rule="evenodd" fill-rule="evenodd" stroke-linejoin="round" stroke-miterlimit="2" viewBox="0 0 300 422" xmlns="http://www.w3.org/2000/svg"><g fill-rule="nonzero" transform="translate(-1882.89 -260.474)"><path d="m2099.82 457.753c1.23-3.421 2.24-6.909 3.16-10.412.91-3.504 1.71-7.025 2.37-10.567 1.3-7.082 2.17-14.214 2.32-21.311.13-7.089-.34-14.138-1.77-20.894-1.43-6.746-3.75-13.201-7.12-18.925-3.36-5.73-7.7-10.742-12.84-14.78-1.26-1.043-2.62-1.967-3.94-2.917-1.4-.868-2.75-1.792-4.21-2.562-2.84-1.645-5.88-3.003-8.96-4.243-12.45-4.808-26.14-6.863-39.95-7.377-6.91-.255-13.91-.118-20.85.256-6.89.336-13.64 1.16-20.09 2.466-6.42 1.332-12.57 3.21-17.83 5.884-1.26.723-2.61 1.34-3.74 2.15-.58.387-1.21.735-1.76 1.14l-1.62 1.234c-.57.382-1.01.866-1.51 1.296-.48.446-1.01.851-1.41 1.345l-1.31 1.397c-.38.505-.76 1.002-1.15 1.491-1.45 2.028-2.67 4.175-3.57 6.537-.87 2.382-1.5 4.933-1.89 7.63-.34 2.726-.43 5.598-.35 8.541.16 2.978.46 6.005.97 9.104 2.04 12.415 6.69 25.253 12.26 37.798 5.62 12.57 12.18 25.018 19.15 37.389 3.49 6.19 7.1 12.367 10.76 18.583 3.66 6.236 7.41 12.454 11.1 18.98 1.85 3.27 3.69 6.588 5.53 10.148.92 1.797 1.83 3.63 2.75 5.656l.68 1.543c.23.505.46 1.119.69 1.675.45 1.065.92 2.462 1.36 3.778 1.24 4.024 2.38 8.194 3.18 12.952.75 4.746 1.27 10.129.27 16.469-.31 1.611-.58 3.178-1.11 4.836-.26.818-.48 1.629-.8 2.443-.33.815-.66 1.625-1.01 2.429-1.47 3.183-3.41 6.245-5.59 8.734-1.09 1.324-2.21 2.402-3.36 3.502-.58.576-1.14 1.008-1.71 1.498-.58.471-1.16.96-1.74 1.401-1.12.798-2.29 1.678-3.41 2.363-1.1.672-2.26 1.432-3.33 1.983-4.38 2.427-8.51 4.109-12.49 5.588-3.97 1.444-7.79 2.631-11.57 3.741-7.52 2.159-14.81 3.951-22.01 5.656l-10.49 2.453c-2.29.567-4.21 1.329-5.55 2.078-.34.183-.6.382-.88.55-.21.19-.49.342-.63.512-.39.31-.57.578-.71.784-.15.201-.2.36-.26.554-.05.189-.14.402-.16.772-.1.689-.07 1.931.31 3.534.38 1.595 1.1 3.505 2.14 5.45 2.07 3.927 5.36 7.928 9.18 11.306 3.86 3.366 8.29 6.16 12.88 8.026 4.61 1.871 9.34 2.854 13.95 2.934 4.63.08 9.17-.798 13.63-2.564l1.42-.56 3.11-.625 1.76-.355c.82-.196 1.61-.351 2.46-.581 1.68-.414 3.4-.914 5.13-1.423 3.46-1.064 6.95-2.284 10.41-3.645 6.93-2.717 13.74-6.006 20.32-9.758 6.57-3.76 12.92-7.946 19.07-12.466 2.98-2.387 6.07-4.629 8.92-7.186 1.45-1.26 2.94-2.453 4.34-3.761l4.21-3.933c1.43-1.28 2.75-2.683 4.1-4.053l4.04-4.124 3.86-4.317c1.29-1.436 2.6-2.854 3.79-4.385 2.42-3.024 4.97-5.942 7.21-9.127l3.48-4.687c1.15-1.561 2.18-3.227 3.29-4.831 8.77-12.918 16.27-26.834 22.76-41.324l2.38-5.463 1.2-2.731 1.08-2.791c1.41-3.731 2.88-7.441 4.27-11.189l3.85-11.396c.68-1.885 1.23-3.826 1.79-5.759l1.7-5.798 1.7-5.8 1.46-5.887 1.47-5.889c.46-1.952 1.03-3.953 1.39-5.853 1.74-7.682 2.97-15.379 3.86-23.047 1.75-15.326 1.55-30.554-1.35-44.934-2.9-14.377-8.61-27.796-17.16-39.498-8.5-11.747-19.91-21.632-32.92-29.638-13.01-8.046-27.63-14.193-42.89-18.729-15.26-4.565-31.23-7.72-47.22-9.276-1.99-.193-3.98-.357-5.94-.484-.99-.06-1.91-.118-2.9-.154l-1.11-.046-1.16.005c-3.29.097-6.92.567-10.46 1.342-3.55.788-7.11 1.78-10.57 3.143-1.76.6-3.44 1.417-5.17 2.15-1.7.767-3.35 1.685-5.04 2.513-6.59 3.652-12.82 8.166-18.54 13.408-5.68 5.284-10.8 11.305-15.47 17.753l-3.4 4.929c-1.1 1.677-2.1 3.422-3.16 5.133l-1.57 2.582c-.52.869-.96 1.78-1.44 2.67l-2.86 5.376c-.93 1.805-1.72 3.689-2.59 5.535l-1.28 2.784c-.43.928-.87 1.852-1.23 2.815l-2.27 5.726-1.15 2.866c-.4.953-.69 1.944-1.04 2.916-2.78 7.774-5.16 15.737-7.22 23.815l-1.49 6.082c-.47 2.034-1.05 4.05-1.41 6.111l-2.46 12.338c-2.94 16.548-4.78 33.345-6.29 50.247-.97-16.928-1.12-33.954-.13-51.025l1.09-12.79c.14-2.141.5-4.257.75-6.389l.83-6.393c1.26-8.506 2.88-16.996 4.96-25.429.26-1.054.46-2.122.77-3.166l.9-3.138 1.83-6.28c.28-1.054.66-2.082 1.02-3.114l1.09-3.1c.75-2.061 1.41-4.154 2.24-6.195l2.54-6.108c.43-1.015.83-2.047 1.3-3.05l1.46-2.992c.98-1.99 1.91-4.009 2.96-5.982l3.31-5.832c4.63-7.679 9.91-15.089 16.09-21.88 6.21-6.755 13.28-12.895 21.16-18.013 2.02-1.206 3.99-2.488 6.07-3.618 2.09-1.097 4.15-2.266 6.33-3.215 4.28-2.053 8.78-3.704 13.39-5.093 4.64-1.373 9.37-2.399 14.52-2.951l2.01-.166 1.13-.048.93-.025c1.12-.031 2.32-.036 3.44-.04 2.27 0 4.51.04 6.74.111 17.77.609 35.37 2.83 52.82 6.944 17.41 4.159 34.66 10.222 50.98 19.095 8.15 4.441 16.02 9.623 23.38 15.64 7.36 5.993 14.25 12.769 20.28 20.349 6.03 7.558 11.33 15.808 15.52 24.577 4.18 8.772 7.36 17.969 9.6 27.29 2.24 9.325 3.55 18.767 4.12 28.142.55 9.377.46 18.708-.37 27.868-.14 2.309-.44 4.571-.69 6.852-.25 2.279-.5 4.558-.86 6.803-.35 2.25-.66 4.514-1.03 6.754l-1.24 6.687c-.38 2.265-.91 4.353-1.38 6.526l-1.43 6.463-1.44 6.465-1.7 6.424-1.71 6.425c-.57 2.142-1.12 4.288-1.82 6.404l-3.98 12.739c-1.47 4.212-3.04 8.4-4.56 12.601l-1.16 3.146-1.28 3.107-2.58 6.215c-7.01 16.525-15.48 32.587-25.5 47.809-1.27 1.894-2.46 3.833-3.8 5.681l-4.04 5.543c-2.62 3.742-5.58 7.252-8.43 10.841-1.41 1.81-2.95 3.522-4.47 5.246l-4.56 5.17-4.8 4.982c-1.6 1.657-3.19 3.33-4.9 4.887l-5.05 4.746c-1.69 1.575-3.49 3.042-5.23 4.565-3.46 3.081-7.19 5.855-10.82 8.742-7.47 5.538-15.24 10.702-23.38 15.302-8.13 4.611-16.6 8.686-25.43 12.126-4.42 1.719-8.91 3.297-13.55 4.681-2.33.675-4.67 1.33-7.11 1.913-1.19.305-2.48.565-3.72.844l-1.98.388-1.1.193-.55.094-.84.127 4.52-1.184c-9.05 3.532-19.06 5.405-28.96 5.139-9.91-.222-19.59-2.495-28.37-6.225-8.81-3.741-16.75-8.928-23.74-15.204-6.95-6.33-13-13.757-17.58-22.758-2.27-4.508-4.17-9.441-5.34-14.94-1.15-5.48-1.59-11.618-.47-18.096 1.06-6.437 3.94-13.147 8.2-18.419 2.1-2.649 4.47-4.998 6.95-6.923 1.23-1.02 2.49-1.84 3.76-2.696 1.26-.778 2.55-1.552 3.81-2.198 5.1-2.629 10.11-4.217 14.89-5.274l10.78-2.238c6.96-1.464 13.82-2.982 20.31-4.67 3.21-.857 6.34-1.75 9.22-2.715 2.85-.964 5.47-2.024 7.49-3.032.56-.247.91-.505 1.38-.74.45-.239.72-.468 1.11-.679.55-.42 1.04-.758 1.19-.953.26-.201.26-.257.36-.336.01-.029.03-.053.07-.071.03-.023.02-.1.05-.14.09-.054.08-.293.17-.452.23-.833.3-2.797-.02-5.213-.3-2.421-.94-5.307-1.74-8.246-.13-.406-.19-.745-.43-1.361-.11-.288-.18-.531-.31-.857l-.39-.961c-.53-1.305-1.18-2.746-1.87-4.207-1.39-2.946-2.96-6.034-4.58-9.144-6.52-12.51-13.61-25.467-20.3-38.676-6.68-13.254-13.17-26.799-18.58-41.101-5.4-14.289-10.11-29.227-11.92-45.648-.46-4.099-.6-8.33-.54-12.611.16-4.316.57-8.703 1.46-13.139.94-4.44 2.33-8.898 4.29-13.205 1.99-4.305 4.63-8.373 7.7-12.014l2.39-2.65 2.57-2.419c.85-.829 1.78-1.511 2.69-2.236.92-.701 1.81-1.463 2.77-2.059l2.86-1.87c.96-.596 1.94-1.097 2.92-1.643 1.94-1.126 3.95-1.917 5.93-2.826 8-3.305 16.05-5.022 23.93-6.068 7.88-.998 15.65-1.333 23.28-1.151 7.58.18 15.11.687 22.68 1.588 7.55.911 15.11 2.247 22.58 4.222 7.47 1.977 14.83 4.655 21.88 8.173 3.51 1.799 6.95 3.752 10.21 6.053 1.66 1.089 3.21 2.361 4.79 3.571 1.51 1.307 3.05 2.576 4.46 4.004 5.76 5.561 10.43 12.25 13.7 19.436 3.31 7.184 5.13 14.857 5.85 22.454.73 7.609.44 15.177-.61 22.552-1.06 7.378-2.78 14.586-5.05 21.574-2.26 6.986-5.01 13.793-8.37 20.254z" fill="#e6e6e6"/><path d="m1882.91 446.128c-.11-8.947.38-17.901 1.17-26.825.82-8.925 2.01-17.822 3.58-26.661 1.59-8.836 3.57-17.612 5.99-26.281 2.5-8.647 5.37-17.208 8.91-25.523 3.51-8.325 7.63-16.425 12.53-24.082 2.39-3.862 5.09-7.532 7.87-11.146 2.87-3.536 5.83-7.027 9.13-10.199 3.22-3.253 6.74-6.199 10.37-9.006l2.8-2.006c.47-.331.93-.675 1.4-.995l1.46-.923 2.91-1.844 3.01-1.68c1.98-1.169 4.1-2.088 6.16-3.098 1.03-.526 2.12-.898 3.18-1.349 1.06-.426 2.12-.883 3.2-1.28 4.34-1.509 8.75-2.856 13.26-3.747 8.99-1.884 18.2-2.524 27.32-2.174 9.12.347 18.17 1.664 27.03 3.624 2.2.534 4.44.966 6.62 1.586l6.55 1.815c4.31 1.38 8.65 2.688 12.87 4.305 4.28 1.484 8.44 3.249 12.63 4.942 2.08.866 4.12 1.826 6.19 2.734 2.06.92 4.13 1.818 6.14 2.858l6.09 3.018c2.02 1.034 3.97 2.189 5.96 3.278l2.97 1.657c.99.566 1.94 1.195 2.9 1.789 1.92 1.211 3.86 2.397 5.77 3.631 7.53 5.09 14.71 10.736 21.36 16.979 13.23 12.565 24.04 27.817 31.13 44.725 7.04 16.938 10.32 35.258 10.53 53.461.14 9.114-.54 18.215-1.81 27.206-1.27 8.996-3.12 17.891-5.46 26.648-2.34 8.756-5.24 17.346-8.47 25.791-3.24 8.448-6.9 16.726-10.94 24.809-4.03 8.085-8.34 16.026-13.02 23.748-4.69 7.719-9.66 15.26-14.9 22.609-5.25 7.346-10.82 14.456-16.63 21.372-5.81 6.912-11.89 13.603-18.28 19.995-12.77 12.783-26.6 24.603-41.82 34.576-7.62 4.962-15.57 9.474-23.95 13.198-8.37 3.717-17.16 6.676-26.34 8.297l-1.71.316-1.74.21-3.48.414c-1.15.1-2.3.153-3.45.231-1.15.075-2.3.152-3.45.153l-3.46.061-3.48-.091-1.73-.057-1.74-.135c-1.16-.105-2.31-.152-3.47-.307-9.23-1.053-18.49-3.549-26.82-8.212-4.15-2.336-8.03-5.195-11.47-8.54-3.44-3.339-6.41-7.173-8.8-11.325-4.8-8.314-7.24-17.828-7.49-27.286-.54-18.968 7.44-37.778 21.18-50.758 6.86-6.491 15.14-11.502 24.06-14.542 4.46-1.528 9.06-2.592 13.7-3.238 1.17-.134 2.33-.339 3.49-.41l3.5-.259c2.33-.052 4.67-.142 6.99-.018 2.34.025 4.65.292 6.96.483 2.3.318 4.61.567 6.87 1.031 4.57.783 9.01 1.975 13.44 3.297 4.45 1.457 8.92 2.998 13.22 6.279.54.381 1.06.926 1.58 1.398.26.248.5.562.75.843.24.288.49.572.71.931.92 1.269 1.65 3.058 1.72 4.944.09 1.895-.5 3.687-1.28 5.077-.78 1.43-1.77 2.466-2.76 3.434-2 1.854-4.15 3.193-6.32 4.326-2.17 1.122-4.39 2.033-6.64 2.811-4.49 1.551-9.1 2.562-13.78 3.14-4.68.556-9.46.691-14.31-.022-2.42-.368-4.88-.938-7.29-1.943-2.4-1-4.8-2.45-6.78-4.577-1.97-2.135-3.28-4.981-3.71-7.784-.45-2.817-.16-5.527.43-8 .59-2.481 1.47-4.785 2.47-6.985l2.72-6.057c3.53-8.079 6.73-16.264 8.91-24.654 2.18-8.387 3.15-16.984 3.04-25.656-.1-8.673-1.19-17.398-2.62-26.1-3.11-17.404-7.45-34.734-11.76-52.064-.53-2.184-1.09-4.292-1.61-6.538-.55-2.239-1.01-4.508-1.4-6.796-.77-4.578-1.19-9.266-1.04-14.022.01-1.185.16-2.383.24-3.574.17-1.194.27-2.39.53-3.581.41-2.388 1.13-4.759 2.04-7.065 1.8-4.62 4.93-8.923 9.02-11.993 4.09-3.097 9.02-4.857 13.9-5.46 4.9-.631 9.79-.246 14.45.796 9.34 2.104 17.85 6.646 25.12 12.564 7.24 5.962 13.29 13.406 17.48 21.827 2.12 4.194 3.75 8.633 4.9 13.189.59 2.272 1.01 4.587 1.36 6.906.16 1.163.28 2.327.41 3.498.08 1.197.16 2.402.15 3.659.01.616-.06 1.288-.09 1.928-.07.669-.17 1.351-.32 2.066l-.3 1.111c-.12.376-.33.808-.51 1.201-.41.811-1.05 1.732-2.09 2.454-.49.352-1.13.593-1.71.794-.56.103-1.21.213-1.73.181-.48-.045-1.06-.079-1.46-.203-.41-.119-.86-.237-1.23-.387-1.49-.6-2.55-1.373-3.62-2.141-2.02-1.574-3.69-3.281-5.26-5.036-1.58-1.755-3.02-3.568-4.4-5.42-5.48-7.413-10.05-15.308-13.99-23.548-3.87-8.259-7.23-16.84-8.82-26.148-.38-2.333-.63-4.714-.64-7.162 0-2.443.25-4.974 1.02-7.515.77-2.523 2.2-5.09 4.38-6.992 2.15-1.923 4.85-3.023 7.42-3.495 2.59-.479 5.11-.462 7.54-.242l3.44.446c1.15.13 2.29.329 3.42.549 4.55.768 9.03 1.979 13.4 3.465 8.75 2.994 17.07 7.44 24.2 13.389 1.82 1.438 3.48 3.065 5.17 4.65 1.59 1.692 3.22 3.345 4.65 5.169.75.886 1.49 1.781 2.15 2.734.67.945 1.39 1.854 2.01 2.828l1.84 2.943c.61.982 1.12 2.024 1.68 3.032 2.15 4.088 3.97 8.347 5.27 12.758l.52 1.643.42 1.67c.27 1.115.58 2.22.81 3.343.39 2.258.86 4.499 1.07 6.776.61 4.531.69 9.098.59 13.633-.14 2.266-.2 4.534-.51 6.779l-.38 3.371-.55 3.343c-1.53 8.9-4.14 17.551-7.56 25.821 2.62-8.556 4.55-17.296 5.49-26.109.93-8.804.89-17.698-.61-26.325-.3-2.168-.87-4.282-1.34-6.409-.28-1.053-.6-2.094-.9-3.141l-.45-1.567-.55-1.534c-1.38-4.123-3.24-8.057-5.39-11.805-2.12-3.764-4.68-7.261-7.48-10.525-1.37-1.665-2.92-3.16-4.42-4.696-1.61-1.431-3.18-2.906-4.9-4.197-3.38-2.657-7-5.02-10.82-7.003-3.8-2.003-7.75-3.766-11.86-5.08-4.1-1.343-8.3-2.437-12.57-3.11-1.06-.197-2.13-.373-3.21-.483l-3.21-.386c-2.02-.179-4.01-.161-5.81.179-3.67.664-6.11 2.829-7.16 6.355-1.07 3.521-.83 7.788-.17 11.913 1.44 8.348 4.65 16.602 8.38 24.482 3.79 7.88 8.25 15.511 13.42 22.465 1.3 1.733 2.65 3.412 4.07 4.983 1.4 1.567 2.89 3.052 4.41 4.223.74.536 1.52 1.061 2.12 1.283.15.062.25.065.37.117.13.052.12-.007.19.033.04.012-.06-.033-.06.024-.08-.032-.16.062-.21.079-.23.2.16-.167.29-.952.07-.376.13-.807.18-1.246.01-.476.07-.918.06-1.419-.01-.5 0-.986-.03-1.498l-.11-1.54c-.12-1.05-.22-2.112-.37-3.162-.33-2.097-.71-4.189-1.25-6.238-1.05-4.109-2.53-8.109-4.46-11.888-3.79-7.588-9.29-14.316-15.86-19.693-6.58-5.337-14.3-9.387-22.43-11.188-4.06-.899-8.22-1.188-12.2-.664-3.97.503-7.73 1.905-10.78 4.226-3.05 2.314-5.4 5.497-6.84 9.203-.72 1.849-1.31 3.78-1.65 5.803-.22.994-.3 2.032-.44 3.05-.06 1.039-.2 2.063-.2 3.115-.13 4.183.26 8.443.98 12.675.37 2.117.81 4.23 1.32 6.332.5 2.105 1.09 4.321 1.62 6.475 4.36 17.358 8.78 34.733 12.01 52.534 1.49 8.929 2.66 17.992 2.79 27.205.16 9.2-.9 18.531-3.22 27.457-2.31 8.936-5.65 17.454-9.27 25.748l-2.78 6.178c-.84 1.87-1.55 3.763-2 5.63-.45 1.864-.6 3.699-.33 5.304.28 1.608.91 2.981 1.97 4.152 2.15 2.335 5.94 3.741 9.92 4.303 4 .591 8.24.494 12.43-.011 4.18-.517 8.36-1.439 12.32-2.811 1.97-.685 3.9-1.481 5.7-2.409 1.79-.925 3.45-2.015 4.72-3.199.61-.591 1.17-1.207 1.45-1.756.3-.555.39-.976.38-1.318.04-.618-.69-1.824-2.11-2.908-1.38-1.086-3.16-2.043-5.01-2.879-1.9-.814-3.87-1.542-5.92-2.174-4.13-1.228-8.34-2.36-12.59-3.08-2.11-.436-4.25-.659-6.39-.957-2.13-.171-4.27-.424-6.41-.442-2.15-.116-4.28-.026-6.42.018l-3.19.238c-1.06.063-2.11.255-3.16.375-4.21.589-8.36 1.552-12.36 2.924-8.01 2.731-15.37 7.203-21.49 13-12.27 11.566-19.45 28.554-18.94 45.399.23 8.396 2.39 16.717 6.55 23.907 4.11 7.217 10.28 13.156 17.56 17.252 14.7 8.182 33.02 9.301 49.87 6.705 8.44-1.476 16.73-4.226 24.7-7.747 7.97-3.527 15.63-7.848 23-12.63 14.73-9.612 28.26-21.116 40.77-33.596 6.27-6.239 12.23-12.783 17.94-19.548 5.7-6.767 11.18-13.728 16.34-20.924 5.16-7.198 10.05-14.585 14.65-22.144 4.61-7.561 8.85-15.335 12.81-23.243.96-1.99 1.99-3.952 2.9-5.964l2.77-6.026c1.74-4.061 3.51-8.115 5.07-12.244 3.19-8.236 6.05-16.604 8.36-25.116 2.3-8.512 4.13-17.143 5.38-25.848 1.26-8.703 1.95-17.489 1.84-26.258-.15-17.521-3.23-35.029-9.88-51.188-6.7-16.125-16.93-30.684-29.58-42.789-6.36-6.011-13.25-11.475-20.52-16.421-1.84-1.2-3.71-2.354-5.57-3.534-.93-.579-1.85-1.192-2.8-1.743l-2.88-1.618c-1.93-1.064-3.82-2.192-5.78-3.204l-5.91-2.957c-1.96-1.018-3.99-1.907-6.01-2.817-2.02-.897-4.02-1.848-6.06-2.704-4.1-1.67-8.17-3.416-12.33-4.878-4.13-1.597-8.35-2.881-12.55-4.244l-6.36-1.786c-2.12-.612-4.28-1.034-6.42-1.56-8.58-1.928-17.29-3.224-26.04-3.587-8.73-.365-17.49.22-26.01 1.974-17.07 3.389-32.93 11.987-45.36 24.246-3.17 3.009-6.06 6.303-8.88 9.652-2.72 3.433-5.39 6.925-7.76 10.629-4.88 7.325-8.97 15.175-12.64 23.222-3.67 8.053-6.7 16.403-9.37 24.87-2.68 8.47-4.93 17.088-6.79 25.796-1.89 8.703-3.43 17.492-4.63 26.334-.61 4.42-1.14 8.853-1.57 13.298-.45 4.444-.82 8.899-1.02 13.366z"/></g></svg>