<svg clip-rule="evenodd" fill-rule="evenodd" stroke-linejoin="round" stroke-miterlimit="2" viewBox="0 0 435 381" xmlns="http://www.w3.org/2000/svg"><g fill-rule="nonzero" transform="translate(-3318.21 -277.13)"><path d="m3601.41 477.373s12.37 89.919-62.43 89.639c-84.46-.318-71.29-89.254-71.29-89.254-4.87-3.135-46.12-29.533-46.67-71.331 0 0 56.64-67.095 112.74-23.098 0 0 49.5-47.847 113.29 23.098 0 0-18.15 54.447-45.64 70.946zm114.43-107.983c-102.62-114.125-182.25-37.157-182.25-37.157-90.24-70.775-181.36 37.157-181.36 37.157.89 67.236 67.24 109.702 75.08 114.744 0 0-21.18 143.067 114.68 143.577 120.33.451 100.42-144.196 100.42-144.196 44.24-26.541 73.43-114.125 73.43-114.125z" fill="#e6e6e6"/><path d="m3318.21 390.451c14.58 17.809 29.37 35.365 45.18 51.933 7.9 8.277 16.05 16.303 24.45 24.038 8.42 7.717 17.17 15.046 26.29 21.863 9.13 6.798 18.66 13.042 28.65 18.405 2.47 1.403 5.04 2.577 7.57 3.847 1.26.651 2.57 1.185 3.86 1.763l3.88 1.702 3.94 1.532 1.97.767 2.01.674 4 1.345 4.06 1.144c10.81 2.97 22.1 4.319 33.08 3.081 5.47-.63 10.85-1.958 15.86-4.103 5-2.138 9.62-5.1 13.51-8.812 3.89-3.705 6.92-8.252 8.97-13.173 2.05-4.94 2.9-10.33 2.76-15.679-.15-5.363-1.5-10.676-3.64-15.64-2.16-4.969-5.18-9.583-8.79-13.709-3.61-4.131-7.8-7.779-12.33-10.972-4.53-3.179-9.37-5.993-14.47-8.278-5.09-2.325-10.34-4.3-15.75-5.91-5.39-1.624-10.85-2.947-16.37-3.793-5.5-.843-11.06-1.215-16.53-.884-5.45.396-10.85 1.426-15.81 3.495-4.98 1.997-9.48 5.027-13.34 8.754-3.81 3.785-7 8.238-9.48 13.123-2.51 4.866-4.39 10.101-5.81 15.48-1.43 5.379-2.36 10.916-2.99 16.494-.61 5.584-.88 11.221-.87 16.86 0 2.819.08 5.64.23 8.453.16 2.793.38 5.665.71 8.334l.03.238v.21c-.14 21.81 3.7 43.722 12.42 63.639 4.32 9.955 9.86 19.363 16.44 27.96 6.63 8.556 14.34 16.269 22.95 22.806 17.18 13.098 38.1 21.247 59.6 22.82 21.5 1.638 43.34-3.434 62.2-13.952 4.73-2.621 9.31-5.508 13.67-8.725 4.35-3.214 8.52-6.684 12.52-10.357 3.95-3.723 7.72-7.642 11.29-11.725 3.53-4.127 6.84-8.423 9.9-12.893 6.05-8.986 11.11-18.639 14.86-28.819 3.78-10.16 6.41-20.76 7.97-31.544 3.2-21.596 2.35-43.697.16-65.634-1.1-10.988-2.54-21.972-3.88-33.029-1.31-11.061-2.62-22.193-2.74-33.588-.05-2.845.06-5.716.23-8.592.22-2.882.53-5.775 1.08-8.672.56-2.895 1.33-5.789 2.41-8.624 1.08-2.832 2.55-5.583 4.39-8.102l.69-.943c.24-.308.51-.596.76-.894.52-.583 1.01-1.203 1.59-1.728.58-.541 1.09-1.094 1.74-1.619.65-.523 1.3-1.061 1.98-1.481 2.72-1.795 5.58-2.972 8.44-3.879 5.73-1.776 11.51-2.513 17.26-2.849 5.75-.31 11.49-.118 17.2.479 5.71.646 11.4 1.648 17.06 3.612.71.238 1.42.541 2.12.811.71.32 1.42.609 2.12.978 1.41.7 2.83 1.574 4.21 2.747.35.324.69.626 1.03.981.33.392.65.786.96 1.199.29.485.58.968.83 1.486.2.582.42 1.154.53 1.776.21 1.265.1 2.6-.27 3.711-.36 1.15-.91 2.03-1.48 2.856l-.9 1.083c-.3.363-.62.615-.94.925-.63.629-1.27 1.08-1.92 1.583-1.3.944-2.61 1.734-3.94 2.451-2.64 1.407-5.31 2.577-8 3.601-10.76 4.06-21.7 6.589-32.66 8.911-10.97 2.258-21.98 4.138-33.01 5.791-5.52.821-11.04 1.594-16.56 2.333l-8.29 1.065-8.32.933c-5.55.619-11.09 1.276-16.66 1.684-5.57.446-11.12 1.013-16.7 1.266-22.29 1.402-44.67 1.638-66.99.551-22.32-1.105-44.6-3.421-66.61-7.429-11.02-1.908-21.95-4.349-32.8-7.084-10.85-2.736-21.58-5.962-32.17-9.615-10.58-3.657-21.02-7.757-31.24-12.41-5.09-2.352-10.14-4.812-15.11-7.453l-3.71-2.021-3.67-2.104c-2.45-1.449-4.81-2.881-7.27-4.568l-.01-.003-2.51-1.747 1.83-2.483c11.97-16.218 26.01-31.089 42.34-43.192l3.04-2.293 3.19-2.082c2.14-1.375 4.25-2.789 6.41-4.132 4.47-2.423 8.83-5.068 13.53-7.057 4.56-2.27 9.4-3.921 14.17-5.704l7.33-2.178c1.21-.396 2.46-.661 3.7-.934l3.73-.832c9.98-2.093 20.18-3.08 30.36-2.961 10.18.112 20.33 1.319 30.25 3.456 9.93 2.136 19.63 5.193 29.03 8.988 2.37.908 4.66 1.987 6.99 2.987 2.29 1.084 4.59 2.142 6.85 3.312 1.13.562 2.25 1.157 3.37 1.764 1.12.592 2.23 1.21 3.34 1.846 2.23 1.269 4.36 2.542 6.59 4.042l-3.3-.079.01-.004c6.83-4.169 13.75-8.265 21.11-11.542l2.72-1.284c.91-.423 1.86-.775 2.79-1.166l5.58-2.283c3.82-1.304 7.58-2.755 11.49-3.79 3.85-1.21 7.81-2.04 11.75-2.925l5.97-1.03c1-.193 2-.3 3.01-.415l3.01-.351c8.04-.856 16.17-1.011 24.24-.387 16.16 1.236 31.98 5.584 46.66 12.19 14.7 6.599 28.32 15.362 40.64 25.576 3.11 2.525 6.09 5.197 9.04 7.892 2.9 2.699 5.87 5.559 8.52 8.679 5.28 6.249 9.53 13.339 12.62 20.883 3.01 7.576 4.82 15.608 5.31 23.701.51 8.094-.38 16.235-2.45 24.008-2.07 7.784-5.47 15.173-9.91 21.812-4.45 6.647-9.87 12.515-15.73 17.834-11.75 10.666-25.41 18.885-39.57 25.809 7.09-3.452 14-7.306 20.59-11.646 6.55-4.394 12.79-9.254 18.46-14.72 2.81-2.751 5.49-5.632 7.98-8.659 2.51-3.02 4.81-6.202 6.8-9.552 4.02-6.684 6.95-13.991 8.57-21.562 3.32-15.136 1.52-31.144-4.61-45.116-3.05-6.997-7.18-13.506-12.21-19.211-2.5-2.864-5.26-5.456-8.17-8.097-2.91-2.584-5.85-5.145-8.9-7.558-6.06-4.877-12.4-9.397-19.02-13.459-6.59-4.082-13.45-7.733-20.53-10.839-14.15-6.197-29.24-10.272-44.59-11.406-15.34-1.075-30.87.476-45.69 4.802-3.74.953-7.36 2.322-11.03 3.537l-5.39 2.152c-.89.369-1.8.697-2.68 1.098l-2.64 1.217c-1.76.824-3.54 1.592-5.27 2.46l-5.16 2.69c-.85.456-1.73.87-2.57 1.359l-2.52 1.463-5.04 2.927-.01.003-1.69.999-1.61-1.078c-1.9-1.278-4.05-2.572-6.15-3.764-1.06-.61-2.12-1.203-3.2-1.773-1.08-.584-2.16-1.158-3.26-1.7-2.17-1.129-4.39-2.151-6.61-3.198-2.25-.966-4.47-2.011-6.76-2.888-9.08-3.67-18.46-6.623-28.03-8.681-19.11-4.154-39.04-4.533-58.11-.492l-3.56.795c-1.19.259-2.38.511-3.54.892l-7.01 2.08c-4.56 1.711-9.18 3.28-13.55 5.459-4.5 1.896-8.68 4.446-12.97 6.761-2.07 1.292-4.1 2.654-6.15 3.975l-3.08 1.998-2.92 2.214c-15.73 11.659-29.38 26.077-41.07 41.922l-.68-4.231v.002c2.13 1.442 4.52 2.894 6.86 4.259l3.56 2.024 3.62 1.953c4.85 2.554 9.8 4.942 14.8 7.226 10.03 4.521 20.31 8.511 30.73 12.066 10.43 3.554 21.02 6.682 31.72 9.345 10.69 2.673 21.47 5.06 32.35 6.919 21.72 3.912 43.74 6.153 65.8 7.201 22.06 1.028 44.19.751 66.24-.682 5.52-.261 11.02-.834 16.53-1.287 5.51-.414 11-1.077 16.49-1.7l8.24-.941 8.23-1.075c5.49-.746 10.97-1.525 16.44-2.35 10.94-1.663 21.83-3.547 32.62-5.79 10.75-2.298 21.53-4.835 31.58-8.627 2.5-.95 4.92-2.022 7.18-3.22 2.23-1.177 4.34-2.666 5.41-4.049.21-.321.4-.627.45-.815.07-.204.04-.286.05-.393.01-.186-.32-.803-1.08-1.425-1.48-1.263-3.8-2.384-6.19-3.213-4.84-1.688-10.16-2.66-15.48-3.254-5.33-.559-10.73-.739-16.08-.451-5.32.303-10.65 1.013-15.54 2.534-2.43.764-4.75 1.755-6.67 3.03-.5.3-.91.662-1.35 1.002-.44.345-.87.822-1.31 1.222-.45.399-.82.888-1.22 1.336-.2.231-.41.449-.6.689l-.53.739c-1.44 1.965-2.62 4.15-3.52 6.505-.9 2.359-1.56 4.85-2.06 7.405-.49 2.564-.77 5.2-.98 7.854-.15 2.669-.26 5.353-.22 8.063.11 10.836 1.39 21.82 2.69 32.811 1.33 11 2.78 22.048 3.89 33.172 2.21 22.212 3.11 44.89-.21 67.332-1.63 11.203-4.37 22.29-8.35 32.951-3.93 10.681-9.26 20.845-15.61 30.283-3.22 4.696-6.7 9.203-10.39 13.526-3.75 4.278-7.68 8.365-11.82 12.262-4.18 3.849-8.56 7.492-13.15 10.871-4.58 3.382-9.42 6.429-14.41 9.197-19.93 11.1-43.18 16.562-66.05 14.747-22.85-1.73-45.01-10.452-63.12-24.333-9.08-6.927-17.18-15.081-24.14-24.103-6.9-9.059-12.69-18.955-17.19-29.389-9.07-20.881-12.98-43.714-12.78-66.283l.02.447c-.36-3.035-.57-5.898-.73-8.844-.15-2.926-.22-5.852-.22-8.78 0-5.855.3-11.716.95-17.558.67-5.838 1.67-11.665 3.21-17.394 1.52-5.728 3.56-11.373 6.33-16.72 2.74-5.357 6.32-10.369 10.68-14.673 4.41-4.251 9.63-7.737 15.33-10.002 5.67-2.344 11.73-3.473 17.72-3.889 6.01-.349 11.98.077 17.83.986 5.85.914 11.57 2.319 17.18 4.023 5.61 1.686 11.14 3.776 16.5 6.244 5.38 2.428 10.52 5.429 15.38 8.854 4.85 3.44 9.38 7.398 13.33 11.935 3.94 4.531 7.29 9.65 9.69 15.232 2.39 5.575 3.91 11.609 4.08 17.748.15 6.123-.86 12.331-3.23 18.016-2.37 5.669-5.88 10.88-10.33 15.089-4.43 4.219-9.66 7.533-15.22 9.895-5.57 2.37-11.48 3.8-17.41 4.469-11.9 1.309-23.85-.194-35.16-3.324l-4.24-1.208-4.16-1.41-2.09-.709-2.04-.8-4.09-1.6-4.01-1.77c-1.33-.6-2.68-1.159-3.97-1.831-2.61-1.314-5.26-2.536-7.79-3.981-10.26-5.541-19.99-11.952-29.27-18.905-9.28-6.963-18.16-14.432-26.6-22.352-8.41-7.949-16.47-16.244-24.16-24.851-7.6-8.694-15.06-17.503-21.99-26.714-3.57-4.521-6.87-9.252-10.27-13.896-3.34-4.689-6.54-9.48-9.74-14.258z"/></g></svg>