<svg clip-rule="evenodd" fill-rule="evenodd" stroke-linejoin="round" stroke-miterlimit="2" viewBox="0 0 308 479" xmlns="http://www.w3.org/2000/svg"><g fill-rule="nonzero" transform="translate(-1163.24 -227.824)"><path d="m1470.33 389.875-.11-2.459c-.03-1.641-.35-3.273-.59-4.903-.29-1.621-.72-3.227-1.16-4.819-1.98-6.319-5.45-12.158-10.07-16.896-4.66-4.696-10.48-8.306-16.85-10.313-6.4-1.966-13.18-2.293-19.68-1.02-6.54 1.227-12.64 4.289-17.69 8.411-5.09 4.11-9.03 9.498-11.58 15.433l-.47 1.072c-.01.026-.02.053-.03.079l-.38 1.104-.75 2.262c-.01.025-.02.05-.02.075-.42 1.542-.78 3.105-1.05 4.671l-.3 2.386c-.04.397-.09.794-.13 1.192l-.04 1.194-.04 2.385c-.01.453.01.659.02.936l.04.8.55 12.803 1.12 25.605 2.36 51.211 2.07 42.362c.04.702-.55 1.268-1.25 1.223-2.14-.138-4.28-.181-6.41-.109-5.43.242-10.77 1.05-15.93 2.401-5.13 1.427-10.05 3.325-14.75 5.591-4.68 2.292-9.09 5.008-13.3 7.921-8.42 5.855-15.88 12.772-22.66 20.182-3.38 3.717-6.6 7.565-9.61 11.556-3.01 3.989-5.88 8.072-8.46 12.332 3.07-3.914 6.4-7.598 9.83-11.158 3.45-3.55 7.01-6.973 10.72-10.202 3.7-3.235 7.55-6.279 11.52-9.118 3.96-2.84 8.05-5.476 12.29-7.764 4.23-2.29 8.57-4.342 13.02-5.944 4.45-1.596 8.98-2.812 13.54-3.584 4.56-.695 9.14-.888 13.64-.627 4.51.314 8.9 1.264 13.18 2.503l6.34 1.834c.72.211 1.46-.313 1.49-1.07l.35-7.118 2.5-51.211 2.37-51.211 1.12-25.605.55-12.803.04-.8c.01-.258.02-.585.05-.665.04-.271.08-.542.11-.812l.05-.403.1-.391c.07-.26.13-.519.18-.778.16-.508.35-1.001.52-1.491.12-.234.24-.469.34-.706l.16-.356.21-.331c1.05-1.781 2.46-3.364 4.19-4.405 1.71-1.054 3.57-1.741 5.47-1.901 1.9-.192 3.86-.012 5.63.5 1.76.6 3.42 1.531 4.87 2.805 1.38 1.325 2.47 2.962 3.13 4.76.08.227.12.465.19.693.06.233.18.45.18.697.04.484.22.945.19 1.445.01.246.03.491.06.737v.106l.01.2v182.068c0 .083 0 .165-.02.246-.08.342-.15.7-.23 1.023-.2.847-.39 1.694-.61 2.557-.43 1.723-.92 3.46-1.41 5.197-1.02 3.474-2.16 6.938-3.4 10.368-2.48 6.866-5.42 13.562-8.74 20.012-6.64 12.915-15.05 24.687-24.97 34.665-5.03 4.911-10.44 9.331-16.17 13.252-5.78 3.847-11.95 7.03-18.32 9.761-12.89 5.133-26.83 7.841-41.14 8.262l-5.39-.045-2.7-.015c-.9-.001-1.8.005-2.72-.079l-5.51-.362c-1.83-.117-3.68-.208-5.48-.466-3.62-.459-7.28-.76-10.83-1.476l-5.32-.925c-.02-.004-.04-.009-.07-.014l-5.22-1.218-2.63-.607c-.87-.227-1.72-.501-2.57-.748l-5.11-1.498c-.03-.007-.05-.014-.07-.021l-4.98-1.785c-.83-.306-1.68-.583-2.5-.91l-2.43-1.047-2.43-1.04c-.81-.345-1.63-.673-2.4-1.09l-4.7-2.359c-1.55-.809-3.03-1.74-4.55-2.596-1.54-.833-2.97-1.826-4.42-2.786-5.8-3.84-11.21-8.215-16.11-13.111-4.9-4.9-9.3-10.303-13.15-16.11-3.83-5.809-7.11-12.019-9.82-18.455-1.32-3.23-2.53-6.506-3.54-9.806-.49-1.648-.95-3.299-1.35-4.927-.19-.811-.39-1.621-.54-2.398l-.23-1.136-.04-.259-5.87-188.984-.74-23.745-.37-11.872-.18-5.936-.09-2.968c-.03-.673.01-.558.01-.679-.01-.088-.03-.175.01-.251.03-.641.37-1.209.83-1.703.48-.517 1.09-.706 1.72-.808.72-.045 1.3.117 1.87.458.54.39.95.966 1.15 1.55 0 .081.02.155.06.228.01.08 0 .163.03.24.04.074-.01.172.01.254l.01.064.01.033v103.257c0 .648.53 1.174 1.18 1.174h25.45c8.01 0 14.5-6.492 14.5-14.5v-130.622c0-.199 0-.479.01-.514.02-.179.04-.357.04-.536.09-1.423.45-2.774 1.08-4.026.64-1.248 1.54-2.391 2.63-3.295 1.11-.895 2.38-1.55 3.72-1.924 1.32-.375 2.8-.476 4.2-.287 1.39.188 2.72.661 3.92 1.393 2.42 1.463 4.22 3.973 4.75 6.699.03.354.1.696.15 1.045 0 .18.01.359.02.537l.03.402c0 .041.01.076.01.207v126.957c0 2.642 2.14 4.784 4.78 4.784h20c8 0 14.5-6.492 14.5-14.5v-165.913l.01-.081.01-.163.02-.324c-.02-.443.11-.852.14-1.278 0-.218.12-.408.15-.616.07-.2.07-.422.16-.612.18-.387.26-.807.49-1.172.69-1.552 1.89-2.882 3.28-3.884.72-.457 1.45-.913 2.26-1.162.76-.324 1.58-.439 2.41-.56.04-.006.08-.01.13-.012 1.72-.089 3.43.115 4.94.845.19.1.38.19.58.271.19.09.35.235.54.336.39.18.69.506 1.06.731.62.586 1.29 1.153 1.75 1.882 1.06 1.368 1.6 3.01 1.83 4.689.06.207.01.434.03.648l.02.325c.01.117.03.158.02.488l-.02 3.156-.05 6.313-.4 50.5-.4 50.5-.2 25.25c-.08 8.417-.1 16.834-.3 25.25l-.17 6.865c-.1 4.189 3.23 7.66 7.42 7.73l7.34.123 9.36.155c8.01.134 14.62-6.253 14.75-14.264l.01-.49c.11-6.722.14-13.444-.05-20.167-.2-6.722-.55-13.444-.83-20.166l-1.75-40.334-1.82-40.334-.46-10.083-.12-2.521-.01-.788-.03-.726c.06-.471.05-.962.13-1.436.11-.463.11-.967.28-1.42.49-1.877 1.42-3.689 2.73-5.251 1.34-1.53 3.02-2.794 4.93-3.636 1.9-.843 4.06-1.284 6.24-1.169 2.17.098 4.33.689 6.31 1.749 3.99 2.107 6.97 6.241 7.77 10.948l.1.896.06.45.03.227.02.315.12 2.521.26 5.042.51 10.083 1.03 20.167 2.17 40.333 1.09 20.167c.09 1.474 2.26 1.474 2.35 0l1.09-20.167 2.17-40.333 1.03-20.167.51-10.083.25-5.042.13-2.521.02-.315v-.403l-.01-.809-.03-1.622c-.5-8.682-5.2-17.196-12.63-22.248-3.69-2.547-8.01-4.28-12.52-4.973-4.49-.711-9.18-.356-13.62 1.026-2 .624-3.95 1.464-5.79 2.483v-.567c.01-.196-.01-.681-.02-1.089l-.05-1.251c-.05-.835-.04-1.669-.17-2.5-.77-6.658-3.21-13.197-7.2-18.578-1.93-2.747-4.32-5.13-6.87-7.289-1.33-1.014-2.64-2.064-4.1-2.904-.72-.432-1.42-.889-2.17-1.274l-2.26-1.105c-6.12-2.833-12.99-3.87-19.61-3.318-6.67.609-13.23 2.998-18.72 6.835-1.35.987-2.7 1.984-3.91 3.142-1.27 1.097-2.39 2.347-3.5 3.598-2.13 2.574-4.03 5.369-5.44 8.425-.77 1.496-1.32 3.088-1.89 4.673-.29.788-.46 1.614-.68 2.425-.2.818-.45 1.625-.56 2.457-.27 1.656-.55 3.317-.59 4.986l-.06 1.251-.02.626-.01.313v15.122c-.05-.027-.09-.056-.13-.083-4.6-2.808-9.81-4.662-15.15-5.377-5.32-.716-10.77-.348-15.98 1.121-5.2 1.463-10.08 4.02-14.24 7.43-4.15 3.417-7.58 7.694-10.03 12.5-2.45 4.8-3.9 10.144-4.21 15.501l-.09 2.009c-.01.39-.01.534-.01.76v10.72c0 .853-.88 1.419-1.65 1.064-5.07-2.32-10.76-3.317-16.25-2.801-7.22.67-14.28 3.867-19.4 8.993-5.15 5.058-8.62 11.967-9.35 19.231-.12.904-.16 1.805-.18 2.708-.02.868-.02 1.974 0 2.29l.09 2.968.19 5.936.37 11.872.73 23.744 5.9 189.955.03.884.1.625.18 1.177.17.947c.11.603.23 1.211.35 1.774.24 1.159.5 2.272.77 3.382.53 2.214 1.14 4.369 1.78 6.506 1.3 4.261 2.83 8.41 4.5 12.495 3.42 8.135 7.55 15.963 12.43 23.345 4.89 7.377 10.52 14.294 16.8 20.577 6.28 6.28 13.22 11.898 20.6 16.784 1.84 1.222 3.67 2.468 5.61 3.535 1.91 1.091 3.8 2.252 5.75 3.273l5.89 2.96c.98.514 1.99.93 2.99 1.363l3.02 1.296 3.02 1.288c1.02.405 2.05.751 3.07 1.128l6.12 2.184c.02.008.04.013.06.02l6.2 1.829c1.05.299 2.08.624 3.13.897l3.14.736 6.26 1.45c.02.005.04.009.06.013l6.3 1.105c4.21.828 8.43 1.203 12.66 1.725 2.11.29 4.22.404 6.33.541l6.32.41c1.05.09 2.13.092 3.21.098l3.23.025 6.46.038c17.28-.49 34.86-3.795 51.34-10.409 8.18-3.466 16.09-7.581 23.48-12.505 7.33-4.991 14.18-10.61 20.46-16.76 12.4-12.443 22.5-26.746 30.31-41.949 3.92-7.605 7.35-15.414 10.24-23.421 1.44-4.002 2.77-8.051 3.98-12.161.59-2.064 1.17-4.134 1.7-6.246.27-1.05.51-2.131.77-3.207.25-1.146.46-2.079.74-3.565l.2-1.098c.02-.07.02-.142.02-.215v-180.465l.01-3.201z" fill="#e6e6e6"/><path d="m1295.72 574.782c1.83-4.164 3.91-7.919 6.18-11.686 2.27-3.738 4.76-7.34 7.45-10.799 5.36-6.919 11.66-13.206 18.89-18.343 3.59-2.59 7.5-4.778 11.56-6.601 2.02-.958 4.14-1.665 6.24-2.423 2.16-.604 4.29-1.273 6.5-1.653 2.18-.519 4.42-.687 6.64-.985 2.23-.071 4.47-.306 6.69-.156 4.48.018 8.88.779 13.23 1.636l-3.25 2.601-.11-69.715-.05-34.858-.03-17.428-.01-8.715c.07-1.538.14-3.123.26-4.678.28-1.541.45-3.107.83-4.627 1.48-6.101 4.45-11.817 8.56-16.549l.76-.9c.26-.289.55-.551.83-.828l1.69-1.637c.54-.571 1.2-1.006 1.8-1.505l1.86-1.451 1.99-1.257c.68-.398 1.3-.88 2.03-1.194l2.12-1.036c.35-.169.7-.351 1.06-.508l1.11-.404c5.87-2.256 12.34-3.006 18.57-2.143 6.21.789 12.35 3.318 17.27 7.294 5 3.904 8.8 9.221 11.16 15.075 1.13 2.95 1.9 6.034 2.3 9.17l.19 2.363c.07.801.07 1.472.11 2.215l.17 4.356 1.35 34.848 2.71 69.696 1.36 34.849.02.544c.01.172.01.36.01.617l-.04 1.174-.1 2.24c-.09 1.484-.19 2.964-.32 4.436-.24 2.951-.59 5.882-.96 8.81-.78 5.85-1.83 11.656-3.09 17.416-2.52 11.521-6.06 22.834-10.64 33.74-1.08 2.755-2.41 5.403-3.63 8.097-1.26 2.679-2.7 5.269-4.05 7.908-1.49 2.561-2.95 5.144-4.51 7.665l-2.44 3.724c-.82 1.238-1.6 2.497-2.51 3.673-6.9 9.669-15.01 18.517-24.2 26.099-9.18 7.593-19.41 13.896-30.26 18.775l-8.24 3.418-8.45 2.817c-1.4.51-2.85.851-4.28 1.219l-4.31 1.105c-1.44.352-2.87.774-4.32 1.066l-4.36.806-4.37.805-2.19.4-2.19.272-8.78 1.083c-5.89.433-11.78.941-17.71.866-11.83.046-23.73-1.079-35.33-3.798-11.59-2.703-22.86-7.023-33.24-12.949l-1.96-1.095c-.65-.359-1.26-.798-1.89-1.193l-3.77-2.436c-1.28-.775-2.43-1.734-3.64-2.603-1.2-.897-2.42-1.761-3.59-2.688l-3.43-2.881-1.72-1.442-1.63-1.534-3.25-3.079c-1.05-1.054-2.06-2.16-3.09-3.238-8.2-8.678-14.98-18.602-20.57-29.094-5.48-10.555-9.81-21.703-12.47-33.37-.3-1.47-.62-2.933-.9-4.411-.22-1.497-.53-2.959-.68-4.483l-.27-2.269-.16-2.319c-.09-1.53-.08-2.927-.13-4.396l-.41-17.431-3.27-139.443-.81-34.861c-.12-5.814-.32-11.612-.36-17.44v-8.775c.02-3.297.65-6.594 1.81-9.683 2.32-6.183 6.85-11.512 12.64-14.706 5.79-3.219 12.69-4.29 19.17-3.033 6.5 1.28 12.47 4.941 16.56 10.118 2.06 2.58 3.66 5.528 4.7 8.664.53 1.567.88 3.182 1.14 4.817l.26 2.475.09 2.176 3.05 69.778c.02 3.047-.08 6.175-.75 9.407-.32 1.598-.84 3.282-1.51 4.83-.33.736-.68 1.479-1.12 2.261-.47.789-.89 1.584-1.98 2.62-.23.232-.71.564-1.13.802-.61.286-1.24.529-2.19.513-.81.011-1.84-.374-2.29-.724-.63-.416-.91-.762-1.21-1.122-.52-.68-.77-1.233-.99-1.728-.21-.509-.35-.945-.49-1.393-.49-1.725-.73-3.263-.94-4.804-.38-3.054-.56-6.02-.69-8.981-.46-11.819-.08-23.452.2-35.086.62-23.27 1.64-46.497 2.49-69.703l.3-8.698.14-4.347.06-2.173c.04-.75.12-1.593.18-2.385l.1-1.206.21-1.193c.15-.792.25-1.596.46-2.377l.66-2.332c.21-.781.56-1.515.84-2.272 1.21-2.989 2.81-5.84 4.86-8.334 4-5.063 9.53-8.894 15.66-10.916.75-.301 1.55-.456 2.33-.663.78-.191 1.56-.421 2.36-.511l2.4-.354 2.41-.128c3.25-.109 6.58.337 9.71 1.344 3.14 1.004 6.09 2.558 8.7 4.571 2.59 2.021 4.83 4.491 6.59 7.27 1.76 2.778 3.04 5.866 3.75 9.075.17.803.36 1.605.43 2.425.08.788.21 1.695.25 2.372l.31 4.335c.85 11.561 1.83 23.133 2.79 34.713s1.92 23.169 2.77 34.782c.82 11.62 1.63 23.231 1.85 34.988l.04 4.421-.09 4.468c-.02 1.485-.2 3.042-.29 4.558l-.04.573-.12.758c-.09.5-.21.994-.37 1.485-.34.985-.73 1.965-1.71 3.095-.28.295-.57.582-.99.868-.45.292-.93.556-1.64.706-.61.173-1.45.109-2.07-.045-.59-.177-1.22-.478-1.53-.748-.42-.298-.73-.601-.94-.853-.24-.277-.47-.563-.6-.791-.15-.241-.32-.5-.45-.733l-.32-.672c-.79-1.759-1.14-3.297-1.49-4.853-.63-3.079-.95-6.061-1.2-9.037-.5-5.945-.59-11.818-.6-17.685.01-5.861.16-11.716.38-17.539l2.75-69.645 1.37-34.822.36-8.738c.11-3.236.79-6.445 1.89-9.49 1.09-3.055 2.72-5.908 4.74-8.435 2.02-2.53 4.4-4.768 7.1-6.57 5.4-3.55 11.94-5.444 18.41-5.099 6.48.2 12.83 2.676 17.89 6.687 5.09 4.013 8.76 9.718 10.51 15.949l.53 2.369c.18.789.23 1.6.34 2.399.05.394.11.819.14 1.187l.08 1.087.16 2.174.64 8.697c1.68 23.194 3.21 46.399 4.43 69.638.6 11.62 1.12 23.248 1.45 34.899.17 5.826.29 11.658.3 17.506 0 5.854-.05 11.701-.48 17.663-.12 1.494-.26 2.996-.48 4.541-.12.774-.25 1.559-.44 2.38-.2.833-.39 1.661-.91 2.757-.14.277-.3.575-.57.933-.23.323-.63.785-1.26 1.175-.69.466-1.85.61-2.15.558-.51.015-1.02-.109-1.51-.254-.92-.338-1.66-.901-2.1-1.389-.26-.263-.44-.502-.62-.744-.19-.253-.32-.476-.46-.708-.52-.915-.86-1.762-1.12-2.57-.28-.813-.49-1.6-.67-2.376-.7-3.096-1.04-6.072-1.31-9.047-.27-2.97-.42-5.918-.53-8.86-.38-11.76-.09-23.425.36-35.079.96-23.299 2.7-46.512 4.72-69.694l.2-2.173.09-1.089.17-1.203c.17-1.609.57-3.19 1.02-4.742.92-3.107 2.41-6.045 4.33-8.648 3.83-5.227 9.42-9.118 15.66-10.885 6.23-1.756 13.08-1.383 18.95 1.319 5.85 2.732 10.44 7.575 13.13 13.102 1.31 2.793 2.2 5.739 2.63 8.728.25 1.488.28 3.008.34 4.493l.01 4.358.07 17.433c.08 11.621.19 23.241.43 34.857-.33-11.614-.81-23.225-1.3-34.836l-.81-17.414-.2-4.353c-.14-1.411-.23-2.803-.59-4.16-.62-2.719-1.73-5.307-3.26-7.586-3.08-4.569-7.67-7.785-12.55-9.53-2.46-.853-5.01-1.32-7.58-1.453-2.57-.125-5.17.096-7.64.823-4.94 1.409-9.39 4.507-12.43 8.659-1.52 2.067-2.7 4.395-3.43 6.859-.35 1.232-.67 2.482-.8 3.763l-.13.956-.1 1.081-.19 2.167c-2 23.118-3.71 46.267-4.64 69.409-.43 11.563-.72 23.148-.33 34.617.11 2.864.26 5.719.51 8.536.26 2.808.6 5.618 1.19 8.187.28 1.257.7 2.526 1.11 3.236.05.079.1.177.13.207.04.05.08.108.08.094.04.067-.07-.106-.32-.161-.14-.075-.31-.065-.44-.087.06-.032-.74.065-1.11.334-.65.45-.51.52-.5.417.11-.213.3-.8.42-1.379.14-.596.25-1.244.35-1.907.19-1.33.32-2.721.43-4.123.41-5.629.46-11.411.45-17.174-.02-5.771-.14-11.557-.31-17.345-.35-11.578-.88-23.166-1.49-34.752-1.23-23.174-2.78-46.345-4.48-69.506l-.64-8.684-.17-2.17-.08-1.086c-.03-.355-.08-.649-.12-.977-.1-.635-.12-1.286-.27-1.911l-.42-1.883c-1.41-4.937-4.31-9.477-8.37-12.664-4.04-3.179-9.05-5.15-14.21-5.295-5.16-.277-10.32 1.244-14.62 4.054-2.13 1.433-4.03 3.219-5.63 5.227-1.6 2.007-2.9 4.268-3.75 6.69-.86 2.413-1.4 4.95-1.49 7.527l-.35 8.677-1.34 34.839-2.69 69.679c-.21 5.789-.35 11.551-.35 17.31.01 5.748.11 11.505.58 17.142.24 2.81.56 5.613 1.1 8.227.27 1.275.62 2.58 1.03 3.471l.15.31c.04.087.08.126.12.196.04.093.05.08.05.075.02.041-.02-.021-.14-.112-.05-.014-.32-.217-.58-.252-.28-.11-.72-.071-.99-.031-.68.203-.78.37-.84.423-.01.032.22-.335.33-.722.07-.2.12-.414.16-.626l.05-.319.03-.515c.08-1.382.24-2.717.26-4.137l.09-4.244-.05-4.293c-.23-11.48-1.04-23.062-1.87-34.618-.85-11.564-1.82-23.134-2.79-34.711-.97-11.578-1.96-23.161-2.83-34.776l-.32-4.356-.04-.545-.06-.475-.11-.94c-.04-.632-.19-1.245-.33-1.86-.55-2.458-1.52-4.816-2.87-6.943-2.68-4.271-6.91-7.556-11.72-9.059-2.4-.765-4.9-1.105-7.46-1.017l-1.94.098-1.91.29c-.65.063-1.26.26-1.89.411-.62.168-1.26.28-1.86.53-4.89 1.619-9.32 4.685-12.51 8.742-1.65 1.991-2.92 4.276-3.88 6.659-.22.607-.51 1.187-.67 1.813l-.53 1.86c-.16.622-.23 1.267-.36 1.899l-.17.952-.07.966c-.05.657-.12 1.259-.15 1.96l-.06 2.182-.14 4.364-.3 8.719c-.82 23.241-1.82 46.449-2.42 69.64-.26 11.593-.62 23.207-.17 34.615.13 2.843.31 5.679.65 8.391.17 1.336.4 2.674.71 3.744.07.245.16.504.23.66.06.176.14.275.06.171-.06-.083-.11-.142-.43-.375-.17-.117-.82-.408-1.27-.383-.58.01-.87.109-1.14.26-.13.033-.29.194-.26.159-.03.047.33-.411.58-.877.27-.484.55-1.053.81-1.648.48-1.116.82-2.222 1.08-3.469.52-2.463.63-5.181.61-7.935l-3-69.518-.09-2.177-.2-1.858c-.2-1.229-.46-2.464-.87-3.647-.79-2.375-2-4.61-3.56-6.571-3.11-3.937-7.64-6.719-12.56-7.695-4.93-.949-10.18-.137-14.56 2.296-4.4 2.417-7.85 6.49-9.61 11.172-.88 2.344-1.37 4.836-1.38 7.356l-.01 8.652c.03 5.791.24 11.608.35 17.41l.8 34.835 3.19 139.342.4 17.418c.05 1.432.04 2.944.13 4.312l.13 2.029.25 2.058c.13 1.37.42 2.754.62 4.131.26 1.377.56 2.753.84 4.13 2.5 11.004 6.64 21.697 11.86 31.753 5.32 10.005 11.77 19.448 19.54 27.665.97 1.021 1.92 2.072 2.92 3.069l3.08 2.912 1.54 1.454 1.62 1.362 3.24 2.725c1.1.875 2.26 1.689 3.38 2.537 1.15.821 2.23 1.732 3.44 2.461l3.55 2.3c.6.374 1.17.79 1.79 1.129l1.85 1.032c9.8 5.598 20.44 9.694 31.47 12.271 11.03 2.59 22.42 3.68 33.81 3.642 5.7.078 11.4-.415 17.09-.828l8.52-1.047 2.13-.261 2.1-.385 4.2-.774 4.2-.771c1.4-.279 2.76-.686 4.14-1.023l4.14-1.056c1.37-.352 2.76-.676 4.1-1.165l8.08-2.688 7.86-3.258c10.34-4.652 20.07-10.61 28.81-17.813 8.75-7.191 16.49-15.595 23.1-24.828.87-1.12 1.62-2.327 2.41-3.512l2.34-3.56c1.5-2.415 2.91-4.892 4.34-7.346 1.3-2.536 2.69-5.02 3.91-7.598 1.18-2.595 2.47-5.138 3.51-7.796 4.44-10.512 7.89-21.462 10.35-32.636 1.24-5.584 2.27-11.22 3.04-16.887.36-2.835.7-5.674.94-8.514.13-1.42.23-2.838.32-4.254l.1-2.113.03-1.003c.01-.106 0-.281-.01-.472l-.02-.544-1.29-34.816-2.58-69.633-1.29-34.818-.16-4.352c-.03-.707-.04-1.49-.1-2.136l-.15-1.981c-.33-2.629-.97-5.214-1.92-7.69-1.97-4.907-5.14-9.379-9.31-12.635-8.21-6.706-20.2-8.135-30.09-4.323l-.94.334c-.31.132-.6.29-.91.433l-1.79.874c-.62.256-1.15.678-1.73 1.012l-1.69 1.06-1.58 1.237c-.51.426-1.08.784-1.54 1.277l-1.44 1.393c-.24.235-.49.456-.72.702l-.64.769c-3.51 4.031-6.05 8.897-7.32 14.088-.33 1.295-.47 2.63-.72 3.942-.1 1.339-.17 2.658-.24 4.02l-.01 8.715-.03 17.428-.05 34.858-.11 69.715v3.211l-3.25-.611h-.01c-4.02-.785-8.09-1.498-12.18-1.507-2.04-.144-4.07.085-6.11.139-2.01.281-4.05.42-6.04.9-2.01.34-3.95.959-5.92 1.502-1.91.698-3.85 1.334-5.7 2.216-3.72 1.672-7.32 3.678-10.66 6.087-6.71 4.77-12.65 10.682-17.76 17.265-2.55 3.288-4.93 6.727-7.1 10.295-2.15 3.545-4.2 7.298-5.8 10.963z"/></g></svg>