<svg clip-rule="evenodd" fill-rule="evenodd" stroke-linejoin="round" stroke-miterlimit="2" viewBox="0 0 481 281" xmlns="http://www.w3.org/2000/svg"><g fill-rule="nonzero" transform="translate(-262.373 -327.504)"><path d="m589.302 471.601c0 36.982-29.979 66.961-66.961 66.961-36.98 0-66.959-29.979-66.959-66.961 0-36.981 29.979-66.96 66.959-66.96 36.982 0 66.961 29.979 66.961 66.96z" fill="#e6e6e6"/><path d="m335.08 468.32s163.987-245.143 361.44-5.02c0 0-159.803 251.837-361.44 5.02zm-46.018.261c252.981 309.665 453.476-6.299 453.476-6.299-247.732-301.267-453.476 6.299-453.476 6.299z" fill="#e6e6e6"/><path d="m262.373 438.027c3.492-4.292 7.211-8.397 11.026-12.409 3.814-4.014 7.734-7.928 11.741-11.755 3.999-3.835 8.111-7.553 12.309-11.173 4.185-3.634 8.461-7.168 12.815-10.604 17.37-13.806 36.144-25.891 55.977-35.972 19.824-10.091 40.885-17.889 62.661-22.8 21.769-4.904 44.274-6.807 66.609-5.313 11.163.784 22.264 2.396 33.203 4.761l4.095.921c1.365.307 2.735.598 4.079.988l8.101 2.201c5.331 1.691 10.698 3.301 15.912 5.33 5.288 1.839 10.394 4.129 15.564 6.263 5.043 2.41 10.18 4.641 15.088 7.317 9.978 5.051 19.516 10.898 28.87 16.99 18.584 12.389 35.951 26.514 52.135 41.826 16.209 15.297 31.227 31.787 45.388 48.935l1.627 1.97-1.389 2.144-.004.005c-3.118 4.721-6.337 9.103-9.68 13.503-3.337 4.377-6.777 8.668-10.3 12.887-7.044 8.44-14.462 16.558-22.168 24.395-15.48 15.599-32.192 30.039-50.292 42.607-18.079 12.569-37.516 23.324-58.112 31.364-20.566 8.078-42.348 13.235-64.431 14.958-11.039.859-22.146.904-33.189.065-11.039-.89-21.996-2.614-32.783-5.045l-8.059-1.964-7.96-2.311c-2.669-.725-5.267-1.666-7.882-2.55-2.604-.917-5.253-1.717-7.803-2.774l-7.711-3.015c-2.554-1.043-5.055-2.206-7.585-3.304l-3.785-1.67c-1.25-.58-2.476-1.209-3.715-1.812l-7.418-3.652c-19.539-10.206-37.971-22.372-55.323-35.834-17.366-13.462-33.618-28.271-49.013-43.866l-2.532-2.565 2.635-2.45.009-.008c5.316-4.911 10.68-9.565 16.15-14.181 5.46-4.606 10.996-9.119 16.612-13.53 11.233-8.821 22.75-17.285 34.566-25.332 11.814-8.047 23.951-15.645 36.445-22.659 12.484-7.024 25.374-13.398 38.72-18.787 13.335-5.384 27.147-9.83 41.446-12.412 14.259-2.572 29.113-3.299 43.638-.543 7.243 1.374 14.36 3.635 21.046 6.841 6.688 3.203 12.912 7.356 18.485 12.206 11.165 9.687 19.72 22.355 24.584 36.273 4.911 13.909 6.255 29.021 3.923 43.556l-1.039 5.42-1.389 5.341c-1.023 3.518-2.258 6.981-3.712 10.366-2.908 6.761-6.76 13.211-11.711 18.802-4.93 5.594-10.973 10.277-17.688 13.536-6.692 3.323-13.958 5.269-21.246 6.181-7.302.957-14.645.795-21.866.104-3.614-.349-7.197-.89-10.755-1.526-1.783-.298-3.557-.725-5.334-1.082-1.767-.434-3.535-.863-5.288-1.356-6.995-2.022-13.88-4.729-20.161-8.649-3.132-1.958-6.139-4.159-8.863-6.706-2.718-2.55-5.179-5.398-7.258-8.516-4.182-6.225-6.72-13.549-7.354-20.991-.632-7.452.543-14.96 3.111-21.885 2.568-6.936 6.621-13.289 11.797-18.546 5.181-5.224 11.652-9.351 18.857-11.166 7.181-1.828 14.934-1.183 21.581 1.781 6.715 2.873 12.267 7.701 16.896 13.057-5.115-4.909-10.932-9.172-17.505-11.513-3.27-1.171-6.693-1.838-10.116-1.941-3.424-.103-6.839.382-10.092 1.372-6.552 1.922-12.309 6.008-16.955 10.972-4.663 4.99-8.192 11.017-10.448 17.44-2.264 6.42-3.201 13.303-2.528 20.006.63 6.706 2.945 13.2 6.73 18.741 1.883 2.776 4.113 5.319 6.592 7.61 2.487 2.287 5.254 4.278 8.153 6.059 5.814 3.568 12.295 6.068 18.944 7.932 1.668.455 3.357.85 5.041 1.25 1.707.327 3.392.721 5.115.995 3.438.585 6.887 1.078 10.346 1.383 6.907.605 13.866.696 20.654-.253 6.784-.905 13.415-2.755 19.435-5.807 6.046-2.995 11.415-7.228 15.834-12.321 4.433-5.088 7.922-11.008 10.571-17.308 1.324-3.151 2.455-6.4 3.387-9.709l1.254-4.981.924-5.051c2.06-13.538.69-27.57-3.962-40.411-4.64-12.843-12.509-24.482-22.858-33.39-5.16-4.455-10.874-8.236-17.014-11.151-6.139-2.915-12.68-4.971-19.393-6.22-13.455-2.508-27.465-1.814-41.101.699-13.67 2.515-27.04 6.858-40.013 12.151-12.977 5.309-25.593 11.58-37.88 18.458-12.287 6.885-24.26 14.366-35.931 22.304-11.674 7.937-23.07 16.299-34.188 25.017-11.089 8.717-22.058 17.751-32.411 27.186l-.008.007.103-5.014c15.212 15.411 31.246 30.015 48.326 43.255 17.067 13.241 35.147 25.166 54.239 35.14l7.244 3.566c1.21.588 2.407 1.203 3.627 1.769l3.691 1.628c2.466 1.069 4.906 2.206 7.394 3.223l7.508 2.934c2.484 1.033 5.058 1.805 7.591 2.698 2.544.86 5.07 1.777 7.661 2.479l7.732 2.246 7.818 1.905c10.463 2.356 21.074 4.026 31.757 4.888 10.686.811 21.427.767 32.104-.063 21.36-1.668 42.451-6.652 62.438-14.501 20.013-7.813 38.971-18.293 56.656-30.589 17.704-12.292 34.105-26.459 49.31-41.78 7.569-7.698 14.86-15.677 21.777-23.965 3.459-4.142 6.835-8.354 10.103-12.64 3.249-4.27 6.476-8.679 9.362-13.049l.002-.004.238 4.113c-13.946-17.004-28.722-33.337-44.642-48.463-15.919-15.115-32.901-29.104-51.024-41.417-9.128-6.043-18.433-11.849-28.159-16.864-4.786-2.661-9.79-4.875-14.705-7.273-5.037-2.121-10.013-4.403-15.163-6.237-5.081-2.024-10.307-3.631-15.501-5.326l-7.884-2.234c-1.308-.398-2.642-.695-3.97-1.01l-3.987-.945c-10.651-2.428-21.471-4.127-32.367-5.016-21.802-1.708-43.846-.104-65.278 4.469-21.454 4.544-42.233 12.101-62.025 21.66-19.804 9.58-38.533 21.354-56.215 34.525-8.848 6.584-17.362 13.62-25.615 20.953-8.24 7.348-16.216 15.019-23.626 23.232z"/></g></svg>