<svg clip-rule="evenodd" fill-rule="evenodd" stroke-linejoin="round" stroke-miterlimit="2" viewBox="0 0 293 467" xmlns="http://www.w3.org/2000/svg"><g fill-rule="nonzero" transform="translate(-2599.04 -249.722)"><path d="m2847.45 536.343c-145.34 73.457-84.88-48.26-41.58-119.43-5.74-37.729-6.46-83.247 2.12-139.283l-.5-.5s-90.79 197.83-174.04 265.055c-15.92 12.857-26.05 31.752-27.28 52.177-.81 13.343 1.82 27.768 12.32 39.768 28 32 80 32 85 29s62 5 86 53c0 0-14.5-73.5-103.5-72.5 0 0 37.18-61.276 83-4 36 45 104.97 8.737 109-22 3.17-24.205-12.55-47.782-30.54-81.287z" fill="#e6e6e6"/><path d="m2808.87 249.722c-11.51 23.504-23.78 46.632-36.54 69.489-3.2 5.704-6.42 11.405-9.68 17.083-3.26 5.674-6.57 11.321-9.9 16.956-6.63 11.291-13.49 22.449-20.47 33.537-6.93 11.113-14.13 22.067-21.48 32.925-7.32 10.874-14.92 21.569-22.71 32.133-7.79 10.57-15.93 20.899-24.48 30.916-8.58 9.989-17.57 19.703-27.65 28.438l-3.81 3.245-3.66 3.071c-2.33 2.115-4.64 4.268-6.72 6.616-4.24 4.622-7.79 9.801-10.53 15.354-5.46 11.131-6.88 23.958-4.36 36.131 2.46 12.211 8.53 23.659 16.54 33.372 8.05 9.718 18.11 17.848 29.38 23.455 5.65 2.772 11.59 4.936 17.7 6.164 6.09 1.275 12.36 1.58 18.45.789 3.05-.385 6.06-1.056 8.96-2.041l4.77-1.505c1.61-.558 3.28-.88 4.93-1.292 6.63-1.523 13.51-2.159 20.35-1.706 6.82.456 13.59 1.93 19.93 4.445 6.34 2.499 12.3 5.851 17.75 9.832 2.72 2.01 5.34 4.132 7.82 6.401 2.46 2.287 4.85 4.648 7.08 7.156 2.24 2.497 4.36 5.085 6.37 7.771 2 2.711 3.87 5.407 5.62 8.444l.01.011-4.65.569c1.04-4.244 1.88-8.704 2.58-13.105.7-4.418 1.27-8.857 1.68-13.306.35-4.449.64-8.906.62-13.351.05-2.225-.08-4.44-.12-6.657l-.22-3.311-.11-1.655-.19-1.643c-.41-4.395-1.17-8.728-2.23-12.954-1.07-4.213-2.45-8.349-4.37-12.167-3.8-7.635-9.49-14.265-16.97-18.176-3.68-2.002-7.67-3.523-11.87-4.375-2.03-.537-4.28-.802-6.45-1.189-1.09-.207-2.19-.294-3.28-.443-1.09-.118-2.19-.303-3.28-.369-4.37-.409-8.75-.487-13.01-.143-4.25.359-8.44 1.239-11.99 2.947-1.72.888-3.37 1.91-4.49 3.236-1.15 1.299-1.9 2.769-2.12 4.318-.22 1.545.08 3.184.86 4.714.78 1.532 2.01 2.926 3.49 4.07s3.2 2.087 5.08 2.693l.7.253.72.182c.49.116.96.261 1.45.359 1.01.133 1.98.37 3.01.391l1.53.1 1.54-.032 3.41-.069 3.55-.069 3.54.214c2.37.072 4.7.48 7.03.786 1.17.132 2.31.412 3.46.644l3.44.723c2.25.627 4.52 1.172 6.73 1.878 2.2.733 4.44 1.384 6.58 2.222 8.69 3.158 17.01 6.95 25.28 10.694 8.25 3.775 16.47 7.521 24.84 10.811 2.09.851 4.21 1.585 6.31 2.384.53.191 1.06.401 1.58.579l1.53.466 1.54.472 1.57.331c4.19.896 8.55 1.106 12.86.639 8.62-.937 17.03-4.408 24.06-9.714 7.05-5.29 12.83-12.316 16.63-20.348 3.76-8.032 5.65-17.027 5.18-26.003-.02-2.25-.36-4.476-.62-6.714-.19-1.109-.42-2.212-.63-3.32-.11-.553-.21-1.11-.34-1.66l-.44-1.633c-1.03-4.408-2.74-8.619-4.52-12.793 4.11 8.063 7.17 16.862 7.83 26.04.86 9.142-.68 18.523-4.27 27.074-3.71 8.509-9.55 16.085-16.85 21.913-7.28 5.839-16.14 9.859-25.54 11.171-4.69.643-9.52.593-14.22-.307l-1.77-.337-1.73-.486-1.73-.491c-.56-.178-1.09-.374-1.63-.56-2.16-.767-4.34-1.474-6.48-2.293-8.59-3.17-16.98-6.782-25.31-10.387-8.32-3.621-16.6-7.237-25.03-10.162-2.09-.783-4.23-1.366-6.34-2.04-2.13-.644-4.28-1.12-6.41-1.687-4.31-.872-8.63-1.652-12.98-1.849l-3.25-.173-3.25.097-3.4.098-1.86.05-1.87-.102c-1.25-.026-2.5-.288-3.74-.459-.63-.119-1.24-.291-1.86-.437l-.93-.232-.91-.313c-2.44-.777-4.79-1.997-6.91-3.604-2.11-1.607-4-3.654-5.3-6.165-1.31-2.49-1.96-5.5-1.56-8.457.37-2.963 1.79-5.697 3.66-7.773 1.85-2.139 4.15-3.55 6.43-4.734 4.65-2.242 9.51-3.198 14.28-3.63 4.77-.4 9.51-.314 14.18.107 1.17.07 2.32.258 3.48.382 1.16.152 2.33.247 3.47.458 2.3.396 4.56.688 6.92 1.304 4.69.989 9.29 2.742 13.55 5.096 2.17 1.126 4.14 2.58 6.11 4.021l2.78 2.403c.9.816 1.7 1.746 2.55 2.617 3.28 3.615 5.95 7.71 8.06 12.019 2.14 4.306 3.61 8.854 4.76 13.427 1.1 4.585 1.92 9.223 2.27 13.875l.17 1.742.09 1.744.17 3.485c.01 2.32.1 4.644.01 6.957-.06 4.634-.43 9.239-.87 13.83-1.01 9.19-2.58 18.195-5.02 27.204l-1.62 6.017-3.03-5.447v-.008c-1.56-2.603-3.45-5.275-5.37-7.783-1.95-2.527-4.01-4.962-6.17-7.303-4.34-4.673-9.09-8.928-14.22-12.635-5.14-3.683-10.7-6.73-16.54-8.974-5.85-2.258-12.02-3.533-18.23-3.892-6.22-.354-12.49.279-18.58 1.736-1.52.398-3.06.697-4.54 1.235l-4.57 1.485c-3.28 1.141-6.68 1.948-10.11 2.392-6.88.911-13.86.57-20.56-.811-6.72-1.337-13.17-3.675-19.26-6.649-12.16-6.021-22.9-14.661-31.55-25.054-8.61-10.392-15.24-22.716-18-36.197-.71-3.357-1.14-6.783-1.3-10.223-.16-3.441-.09-6.906.34-10.337.42-3.431 1.11-6.83 2.1-10.143 1.01-3.304 2.27-6.526 3.77-9.628 3.07-6.168 7.03-11.844 11.65-16.839 2.27-2.539 4.76-4.847 7.28-7.103l3.87-3.22 3.67-3.097c9.73-8.35 18.61-17.84 27.1-27.638 8.47-9.83 16.58-20.017 24.35-30.468 15.62-20.847 30.15-42.542 44.37-64.427 3.56-5.471 7.05-10.985 10.54-16.501l5.24-8.279 5.18-8.308c3.46-5.542 6.87-11.112 10.27-16.685 3.43-5.562 6.81-11.15 10.19-16.742 13.47-22.393 26.79-44.89 39.83-67.576z"/></g></svg>