<?xml version="1.0" standalone="no"?>
<!DOCTYPE svg PUBLIC "-//W3C//DTD SVG 20010904//EN"
 "http://www.w3.org/TR/2001/REC-SVG-20010904/DTD/svg10.dtd">
<svg version="1.0" xmlns="http://www.w3.org/2000/svg"
 width="400.000000pt" height="400.000000pt" viewBox="0 0 400.000000 400.000000"
 preserveAspectRatio="xMidYMid meet">
<metadata>
Created by potrace 1.14, written by Peter Selinger 2001-2017
</metadata>
<g transform="translate(0.000000,400.000000) scale(0.100000,-0.100000)"
fill="#000000" stroke="none">
<path d="M1931 3981 c-18 -18 -19 -24 -9 -41 14 -22 47 -21 62 3 8 13 6 22
-11 38 l-21 21 -21 -21z"/>
<path d="M1928 3734 c-2 -1 -23 -5 -48 -7 -25 -3 -46 -6 -47 -7 -2 -2 -6 -3
-10 -4 -58 -13 -183 -72 -183 -87 0 -5 -6 -9 -13 -9 -33 0 -140 -128 -190
-226 -60 -120 -72 -285 -29 -419 16 -51 64 -145 73 -145 5 0 9 -6 9 -13 0 -7
32 -44 72 -81 81 -77 194 -138 271 -145 24 -3 -1 -20 -50 -35 -32 -10 -86 -32
-120 -48 -34 -16 -66 -30 -70 -31 -4 0 -17 -9 -28 -19 -11 -10 -30 -21 -42
-24 -13 -4 -23 -9 -23 -13 0 -4 -26 -25 -57 -47 -71 -48 -246 -221 -304 -300
-24 -33 -47 -63 -52 -69 -7 -9 -26 -37 -62 -94 -48 -76 -144 -259 -145 -274 0
-5 -6 -23 -14 -40 -15 -33 -55 -151 -61 -177 -2 -8 -10 -44 -19 -80 -23 -103
-30 -167 -30 -290 -1 -117 9 -201 25 -233 6 -9 7 -17 4 -17 -3 0 1 -16 10 -35
13 -33 13 -37 -5 -55 -11 -11 -25 -20 -31 -20 -29 0 -249 -182 -249 -206 0 -2
30 11 68 30 71 36 233 96 259 96 14 0 43 -23 43 -35 0 -29 159 -206 235 -261
22 -16 42 -32 45 -36 20 -26 337 -167 390 -174 3 0 21 -4 40 -9 19 -4 44 -9
55 -11 11 -2 54 -9 95 -16 78 -14 310 -17 370 -4 76 16 200 49 196 53 -2 2
-21 0 -42 -6 -124 -32 -415 -35 -524 -6 -8 2 -30 7 -49 10 -19 3 -42 10 -51
15 -10 5 -19 7 -22 5 -2 -3 -35 7 -74 21 -38 14 -73 27 -79 28 -25 5 -151 71
-208 108 -132 87 -250 207 -301 305 -19 38 -19 39 -3 41 6 0 23 3 37 6 49 10
226 38 265 42 22 2 58 6 81 9 68 9 203 17 301 19 51 0 93 3 93 6 0 4 547 5
560 1 3 -1 48 -4 100 -6 92 -3 151 -8 275 -21 33 -4 74 -8 90 -9 44 -5 113
-15 170 -25 28 -5 65 -12 84 -15 19 -3 38 -8 42 -10 12 -8 -65 -236 -88 -258
-4 -5 -8 -12 -8 -15 0 -4 -11 -25 -24 -47 -14 -22 -25 -42 -25 -45 -1 -6 -18
-28 -48 -61 -10 -10 -18 -23 -18 -28 0 -5 -4 -11 -9 -13 -5 -1 -24 -22 -44
-45 -19 -23 -56 -60 -81 -82 l-47 -41 148 0 c143 1 183 8 183 35 0 4 15 26 33
49 69 86 150 237 182 339 9 28 20 59 25 68 5 9 12 33 15 53 9 44 10 44 138
-18 48 -23 87 -39 87 -35 0 8 -85 95 -116 119 -10 8 -33 25 -50 38 -29 20 -31
26 -28 64 2 24 7 50 10 58 11 26 13 412 3 470 -5 30 -11 69 -14 85 -3 28 -29
133 -40 163 -2 7 -4 13 -4 15 2 7 -50 127 -94 217 -167 341 -441 626 -737 768
-92 44 -183 76 -243 87 -25 4 -37 11 -34 18 3 9 -17 12 -77 12 -129 -1 -235
39 -324 123 -63 59 -116 147 -128 212 -3 14 -9 41 -13 60 -27 124 38 315 141
410 183 169 476 166 653 -7 43 -42 71 -83 102 -150 24 -52 27 -70 27 -176 1
-116 1 -118 15 -75 8 25 14 89 14 153 1 91 -3 122 -22 180 -48 141 -158 270
-282 332 -51 26 -95 43 -124 49 -11 2 -33 7 -50 10 -33 7 -123 13 -127 8z
m219 -1323 c199 -52 412 -198 583 -400 19 -22 40 -47 47 -55 90 -103 259 -431
279 -541 3 -16 7 -32 10 -36 12 -21 38 -217 38 -289 -1 -102 -16 -306 -23
-313 -5 -5 -44 4 -92 23 -46 18 -90 34 -99 36 -150 39 -209 54 -230 58 -221
38 -359 55 -492 60 -39 1 -35 14 9 33 51 21 126 81 154 123 13 19 27 37 30 40
6 5 27 62 37 100 11 41 9 163 -3 201 -17 59 -47 119 -57 119 -5 0 -7 4 -4 9 5
8 -53 66 -111 112 -48 38 -135 62 -228 62 -80 1 -97 -3 -158 -31 -80 -37 -154
-108 -191 -181 -15 -28 -23 -51 -20 -51 4 0 0 -7 -7 -16 -20 -24 -20 -178 0
-236 l16 -48 0 83 c0 66 4 90 23 127 33 62 78 107 137 135 42 21 62 24 132 21
72 -2 88 -6 138 -37 81 -49 129 -119 143 -211 9 -58 -5 -149 -25 -170 -7 -6
-13 -17 -13 -23 0 -16 -79 -90 -115 -108 -39 -20 -100 -32 -147 -29 -26 1 -36
-2 -32 -11 3 -9 -6 -13 -28 -13 -44 -1 -205 -13 -248 -19 -136 -17 -153 -20
-275 -45 -90 -19 -200 -47 -265 -70 -45 -15 -60 -19 -63 -18 -1 0 -20 -8 -42
-19 -61 -29 -67 -26 -86 47 -13 48 -17 97 -15 190 2 69 5 136 8 150 4 14 9 45
12 70 8 56 52 206 71 243 8 16 15 34 15 40 0 26 134 279 182 342 121 160 239
287 323 349 22 17 42 33 45 36 18 21 210 127 248 137 25 6 37 10 52 16 82 31
234 35 337 8z"/>
<path d="M1837 989 c7 -7 15 -10 18 -7 3 3 -2 9 -12 12 -14 6 -15 5 -6 -5z"/>
<path d="M2140 2609 c0 -5 5 -7 10 -4 6 3 10 8 10 11 0 2 -4 4 -10 4 -5 0 -10
-5 -10 -11z"/>
</g>
</svg>
