<svg fill="none" height="22" viewBox="0 0 19 22" width="19" xmlns="http://www.w3.org/2000/svg"><path d="m14.6676 5.91602c-.6563-.08204-1.5586 0-2.707.2871-.9844.28711-1.8047.61524-2.502.98438-.65625-.36914-1.47656-.69727-2.46094-.98438-1.14843-.2871-2.05078-.36914-2.70703-.2871-1.0664.20507-1.96875.77929-2.625 1.72265-.61523.86133-1.025387 1.92774-1.230466 3.19923-.205078 1.1894-.205078 2.3789.041016 3.5273.328125 1.9688.98438 3.5684 1.96875 4.8809 1.14844 1.5996 2.625 2.3789 4.42969 2.3789.41015 0 .90234-.123 1.43554-.4102.32813-.205.73829-.3281 1.14844-.3281.45117 0 .8613.1231 1.1895.3281.5332.2872 1.0253.4102 1.4355.4102 1.8047 0 3.2813-.7793 4.4297-2.3789.9844-1.3125 1.6406-2.9121 1.9687-4.8809.2461-1.1484.2461-2.3379.0411-3.5273-.2051-1.27149-.6153-2.3379-1.2305-3.19923-.6563-.94336-1.5586-1.51758-2.625-1.72265zm-2.2559-1.68164c.3692-.36915.6153-.86133.7793-1.51758.1641-.41016.2051-.90235.2051-1.43555l-.041-.615234-.6152-.041016c-.4922 0-.9844.082031-1.4356.205078-.6152.164063-1.1074.451172-1.51757.779302-.49219.5332-.82032 1.27148-.90235 2.25585-.08203.49219-.08203.94336 0 1.3125l.57422.04102c.53321 0 1.0254-.04102 1.4355-.20508.6563-.16406 1.1485-.41015 1.5176-.77929z" fill="#fff"/></svg>