<svg fill="none" height="22" viewBox="0 0 19 22" width="19" xmlns="http://www.w3.org/2000/svg"><path d="m.3125 19.6562c0 1.1075.86133 1.9688 1.96875 1.9688h14.43755c1.0664 0 1.9687-.8613 1.9687-1.9688v-11.1562h-18.375zm2.625-7.875c0-.3281.28711-.6562.65625-.6562h3.9375c.32813 0 .65625.3281.65625.6562v3.9376c0 .3691-.32812.6562-.65625.6562h-3.9375c-.36914 0-.65625-.2871-.65625-.6562zm13.7813-8.5312h-1.9688v-1.96875c0-.328125-.3281-.65625-.6562-.65625h-1.3126c-.3691 0-.6562.328125-.6562.65625v1.96875h-5.25v-1.96875c0-.328125-.32812-.65625-.65625-.65625h-1.3125c-.36914 0-.65625.328125-.65625.65625v1.96875h-1.96875c-1.10742 0-1.96875.90234-1.96875 1.96875v1.96875h18.375v-1.96875c0-1.06641-.9023-1.96875-1.9687-1.96875z" fill="#fff"/></svg>