<svg fill="none" height="20" viewBox="0 0 25 20" width="25" xmlns="http://www.w3.org/2000/svg"><path d="m23.9839 7.5c-1.1894.04102-5.5371.28711-8.7773 3.4043-1.3535 1.2305-2.1739 2.625-2.7071 3.8965-.5742-1.2715-1.3945-2.666-2.74801-3.8965-3.24023-3.11719-7.58789-3.36328-8.777342-3.4043-.164063 0-.328125.16406-.287109.32812 0 1.14844.287109 5.16798 3.609371 8.20308 3.44532 3.3223 6.89059 3.2813 8.20309 3.2813s4.7168.041 8.1621-3.2813c3.3223-3.0351 3.6094-7.05464 3.6504-8.20308 0-.16406-.164-.32812-.3281-.32812zm-11.5254 4.5527c.5332-.7793 1.1485-1.4765 1.8457-2.0507.7793-.77934 1.5996-1.39458 2.461-1.88677-.6973-2.87109-2.1328-5.45507-3.9786-7.05468-.164-.12305-.4511-.12305-.6152 0-1.8457 1.59961-3.28124 4.18359-3.9785 7.05468.86133.49219 1.68164 1.06641 2.4199 1.84571.7383.61526 1.3535 1.31246 1.8457 2.09176z" fill="#fff"/></svg>