<svg fill="none" height="22" viewBox="0 0 22 22" width="22" xmlns="http://www.w3.org/2000/svg"><path d="m4.93707 11.125h2.99414l-3.56836-3.56836c-.08203-.04102-.08203-.12305-.08203-.20508s0-.16406.08203-.24609l.45117-.45117c.08203-.08203.16407-.08203.2461-.08203s.16406 0 .24609.08203l4.22461 4.2246v-5.98828c0-.16406.12305-.32812.32812-.32812h.65626c.1641 0 .3281.16406.3281.32812v6.23438h2.1328c-.123-.4102-.164-.8203-.164-1.3125 0-2.87109 2.3379-5.20898 5.25-5.25.082 0 .205.04102.2871.04102-.6973-.82032-1.7637-1.35352-2.9121-1.35352-.3692.04102-.7383.08203-1.0664.16406-.6973-1.64062-2.2969-2.78906-4.2246-2.78906-1.88676 0-3.48637 1.14844-4.18364 2.78906-.32812-.08203-.69726-.12304-1.02539-.16406-2.17383 0-3.9375 1.80469-3.9375 3.9375 0 2.17383 1.76367 3.9375 3.9375 3.9375zm9.18753-1.3125c0 .4922.082.9434.205 1.3125h6.9727c.1231.041.2871.041.4102.082.164-.4511.2461-.9023.2461-1.3945 0-2.17383-1.7637-3.89648-3.9375-3.89648-2.1739 0-3.9375 1.72265-3.9375 3.89648zm7.1777 2.625h-19.64648c-.36914 0-.697265.3281-.65625.6973.24609 3.1582 2.37891 5.7422 5.25 6.7265v.4512c0 .7383.57422 1.3125 1.3125 1.3125h7.87503c.6972 0 1.3125-.5742 1.3125-1.3125v-.4512c2.83-1.0254 4.9218-3.6093 5.209-6.7265.041-.3692-.2872-.6973-.6563-.6973z" fill="#fff"/></svg>