<svg width="20" height="20" viewBox="0 0 20 20" fill="none" xmlns="http://www.w3.org/2000/svg">
<path d="M15.3229 3.44914L15.1944 2.77812C15.1417 2.50328 14.9017 2.30519 14.6215 2.30519H12.8368L12.3684 0.653482C12.2595 0.267997 11.907 0.0020752 11.5064 0.0020752H8.4947C8.09404 0.0020752 7.74157 0.267997 7.63272 0.653482L7.16424 2.30519H5.37959C5.09939 2.30519 4.85937 2.50328 4.80672 2.77812L4.67822 3.44914H15.3238H15.3229Z" fill="white"/>
<path d="M4.21961 4.16235H15.7814C16.1107 4.16235 16.3775 4.49162 16.3775 4.75843V5.6579C16.3775 5.98717 16.1107 6.25398 15.7814 6.25398H4.21961C3.89035 6.25398 3.62354 5.92471 3.62354 5.6579V4.75843C3.62354 4.42917 3.89035 4.16235 4.21961 4.16235Z" fill="white"/>
<path d="M4.39098 6.96869V18.4896C4.39098 19.3248 5.06736 20.0021 5.90259 20.0021H14.0968C14.932 20.0021 15.6093 19.3248 15.6093 18.4896V6.96869H4.39014H4.39098ZM8.76872 17.6775H6.27375C6.07654 17.6775 5.91682 17.5178 5.91682 17.3206C5.91682 17.1234 6.07654 16.9637 6.27375 16.9637H8.76872C8.96592 16.9637 9.12565 17.1234 9.12565 17.3206C9.12565 17.5178 8.96592 17.6775 8.76872 17.6775ZM5.91693 15.1789C5.91693 14.9817 6.07666 14.822 6.27386 14.822H8.05495C8.25216 14.822 8.41188 14.9817 8.41188 15.1789C8.41188 15.3761 8.25216 15.5358 8.05495 15.5358H6.27386C6.07666 15.5358 5.91693 15.3761 5.91693 15.1789ZM8.76872 13.3942H6.27375C6.07654 13.3942 5.91682 13.2345 5.91682 13.0373C5.91682 12.8401 6.07654 12.6804 6.27375 12.6804H8.76872C8.96592 12.6804 9.12565 12.8401 9.12565 13.0373C9.12565 13.2345 8.96592 13.3942 8.76872 13.3942ZM5.91693 10.8956C5.91693 10.6984 6.07666 10.5387 6.27386 10.5387H8.05495C8.25216 10.5387 8.41188 10.6984 8.41188 10.8956C8.41188 11.0928 8.25216 11.2525 8.05495 11.2525H6.27386C6.07666 11.2525 5.91693 11.0928 5.91693 10.8956ZM8.76872 9.11096H6.27375C6.07654 9.11096 5.91682 8.95123 5.91682 8.75403C5.91682 8.55682 6.07654 8.3971 6.27375 8.3971H8.76872C8.96592 8.3971 9.12565 8.55682 9.12565 8.75403C9.12565 8.95123 8.96592 9.11096 8.76872 9.11096Z" fill="white"/>
<path d="M19.4585 10.9974V14.1205C19.4585 15.8124 18.0879 17.1829 16.3961 17.1829H16.3247V15.2805C17.0279 15.177 17.5668 14.5738 17.5668 13.8385V11.2793C17.5668 10.5476 17.0279 9.9444 16.3247 9.8409V7.93488H16.3961C18.0879 7.93488 19.4585 9.30556 19.4585 10.9974Z" fill="white"/>
<path d="M2.43318 11.2795V13.8387C2.43318 14.574 2.97215 15.1772 3.6753 15.2807V17.1831H3.60391C1.91207 17.1831 0.541504 15.8125 0.541504 14.1207V10.9975C0.541504 9.30569 1.91212 7.93512 3.60391 7.93512H3.6753V9.84114C2.97215 9.94465 2.43318 10.5478 2.43318 11.2795Z" fill="white"/>
</svg>
